<?xml version="1.0" encoding="utf-8"?>
<!-- Generator: Adobe Illustrator 21.0.0, SVG Export Plug-In . SVG Version: 6.00 Build 0)  -->
<svg version="1.1" id="Object" xmlns="http://www.w3.org/2000/svg" xmlns:xlink="http://www.w3.org/1999/xlink" x="0px" y="0px"
	 viewBox="0 0 266.7 210.2" style="enable-background:new 0 0 266.7 210.2;" xml:space="preserve">
<style type="text/css">
	.st0{fill:#FFC5C0;}
	.st1{fill:#FFBEB9;}
</style>
<g>
	<g>
		<g>
			<path class="st0" d="M203.1,51.7c-9.8,1.5-19,6.5-26.3,13.2c8.9-6.6,20.2-9.7,31.3-9.4c-6.3,6.3-10.9,13.7-18,19
				c-2.3,1.7-4.7,3.2-7.4,4.4c-0.3,0.1-0.6,0.2-0.8,0.3c-2.1,0.6-4.4,0.9-6.5,0.3c-2.1-0.6-4-2.3-4.3-4.5c-0.2-1.6,0.4-3.4-0.3-4.9
				c-1.1-2.5-4.9-2.4-6.4-4.7c-0.8-1.2-0.8-2.9-0.2-4.2c0.6-1.3,1.6-2.4,2.7-3.4c2.3-2,5-3.6,7.8-4.7c0.2,0,0.4-0.1,0.6-0.1
				C184.4,51.3,193.8,50.8,203.1,51.7z"/>
			<path class="st1" d="M174.6,53.2c-2.8,1.1-5.5,2.7-7.8,4.7c-1.1,1-2.2,2.1-2.7,3.4c-0.6,1.3-0.6,3,0.2,4.2
				c1.5,2.2,5.3,2.2,6.4,4.7c0.7,1.5,0,3.3,0.3,4.9c0.3,2.2,2.2,3.9,4.3,4.5c2.1,0.6,4.4,0.3,6.5-0.3c0.3-0.1,0.6-0.2,0.8-0.3
				c-4.1,1.9-8.5,3.1-13.1,3c-2.6-0.1-6.7-0.1-6.8-3.6c0-2.4,1.9-4.4,1.2-6.9c-0.4-1.5-2.6-1.7-4-1.9c-1.6-0.3-3.4-1-3.7-2.5
				c-0.1-0.6,0.1-1.1,0.2-1.7c1.2-3.7,4.2-6.7,7.6-8.6C167.4,55,171,54,174.6,53.2z"/>
		</g>
		<g>
			<path class="st0" d="M208.6,45.4c-5.4-8.3-13.8-14.7-22.9-18.5c9.7,5.4,17.2,14.4,21.5,24.6c-8.4-3.2-16.9-4.2-24.8-8.6
				c-2.5-1.4-4.9-3-7.1-4.9c-0.2-0.2-0.4-0.4-0.6-0.7c-1.4-1.7-2.7-3.6-3-5.8c-0.3-2.2,0.4-4.6,2.3-5.8c1.4-0.9,3.3-1,4.4-2.3
				c1.8-2,0.2-5.5,1.6-7.8c0.8-1.3,2.3-1.9,3.7-1.9c1.5,0,2.9,0.5,4.2,1.1c2.8,1.3,5.3,3,7.5,5.2c0.1,0.2,0.2,0.3,0.3,0.5
				C201.2,28.2,205.5,36.6,208.6,45.4z"/>
			<path class="st1" d="M195.5,20.1c-2.2-2.1-4.7-3.9-7.5-5.2c-1.3-0.6-2.8-1.1-4.2-1.1c-1.5,0-3,0.7-3.7,1.9
				c-1.4,2.3,0.2,5.8-1.6,7.8c-1.1,1.3-3,1.4-4.4,2.3c-1.9,1.2-2.6,3.6-2.3,5.8c0.3,2.2,1.6,4.1,3,5.8c0.2,0.2,0.4,0.4,0.6,0.7
				c-3.4-2.9-6.3-6.5-8.1-10.7c-1-2.4-2.7-6.1,0.4-7.6c2.2-1,4.8-0.1,6.8-1.7c1.2-1,0.4-3.1,0.1-4.4c-0.4-1.5-0.6-3.5,0.8-4.4
				c0.5-0.3,1-0.4,1.6-0.5c3.9-0.4,7.8,1,10.9,3.3C190.9,14.2,193.3,17.1,195.5,20.1z"/>
		</g>
		<g>
			<path class="st0" d="M219.1,48.6c5.3-8.3,7.7-18.6,7.4-28.5c-0.9,11-6,21.6-13.5,29.7c-0.6-8.9-3.1-17.2-2.4-26.1
				c0.2-2.8,0.7-5.7,1.5-8.4c0.1-0.3,0.2-0.5,0.4-0.8c0.9-2,2.2-3.9,4-5.1c1.8-1.2,4.4-1.5,6.2-0.3c1.4,0.9,2.3,2.6,3.9,3.1
				c2.6,0.8,5.1-2.1,7.7-1.8c1.5,0.2,2.7,1.3,3.3,2.6c0.6,1.3,0.8,2.8,0.8,4.3c0,3-0.6,6.1-1.6,8.9c-0.1,0.2-0.2,0.3-0.3,0.5
				C231.8,34.8,225.9,42.2,219.1,48.6z"/>
			<path class="st1" d="M236.7,26.2c1-2.9,1.6-5.9,1.6-8.9c0-1.5-0.1-3-0.8-4.3c-0.6-1.3-1.9-2.4-3.3-2.6c-2.7-0.3-5.2,2.6-7.7,1.8
				c-1.6-0.5-2.5-2.1-3.9-3.1c-1.8-1.2-4.4-0.9-6.2,0.3c-1.8,1.2-3.1,3.1-4,5.1c-0.1,0.3-0.2,0.5-0.4,0.8c1.3-4.4,3.3-8.5,6.4-11.8
				c1.8-1.9,4.5-5,7.1-2.7c1.8,1.6,2,4.3,4.4,5.5c1.4,0.7,3-0.9,4-1.8c1.2-1,3-2,4.3-1.1c0.5,0.3,0.8,0.8,1.1,1.3
				c2,3.4,2.3,7.5,1.5,11.3C240.2,19.6,238.6,23,236.7,26.2z"/>
		</g>
		<g>
			<path class="st0" d="M217.6,58.9c9.7,1.9,20.1,0.2,29.2-3.7c-10.6,3.2-22.3,2.4-32.6-1.6c8.1-3.8,14.8-9.3,23.3-11.9
				c2.7-0.8,5.5-1.4,8.4-1.7c0.3,0,0.6,0,0.9,0c2.2,0.1,4.4,0.6,6.2,1.8c1.8,1.3,3,3.5,2.6,5.7c-0.3,1.6-1.6,3.1-1.4,4.7
				c0.2,2.7,3.8,3.9,4.5,6.5c0.4,1.4-0.2,3-1.2,4c-1,1.1-2.4,1.8-3.7,2.3c-2.8,1.1-5.9,1.7-8.9,1.8c-0.2,0-0.4-0.1-0.6-0.1
				C235.1,65.5,226,62.8,217.6,58.9z"/>
			<path class="st1" d="M244.9,67c3-0.1,6.1-0.7,8.9-1.8c1.4-0.5,2.7-1.2,3.7-2.3c1-1.1,1.6-2.6,1.2-4c-0.7-2.6-4.3-3.8-4.5-6.5
				c-0.1-1.7,1.1-3.1,1.4-4.7c0.4-2.1-0.8-4.4-2.6-5.7c-1.8-1.3-4-1.7-6.2-1.8c-0.3,0-0.6,0-0.9,0c4.5-0.4,9.1-0.1,13.3,1.6
				c2.4,0.9,6.3,2.3,5.2,5.6c-0.8,2.3-3.3,3.5-3.4,6.1c-0.1,1.5,1.9,2.4,3.1,3.1c1.4,0.8,2.9,2,2.6,3.6c-0.1,0.6-0.4,1-0.8,1.5
				c-2.4,3.1-6.1,4.9-10,5.6C252.3,67.8,248.6,67.5,244.9,67z"/>
		</g>
		<g>
			<path class="st0" d="M207.6,60.7c0.4,9.9,4.4,19.6,10.3,27.6c-5.6-9.6-7.5-21.1-5.9-32.1c5.6,7,12.4,12.3,16.9,20
				c1.4,2.4,2.7,5.1,3.6,7.8c0.1,0.3,0.1,0.6,0.2,0.9c0.4,2.2,0.5,4.5-0.4,6.5s-2.7,3.8-4.9,3.8c-1.7,0-3.3-0.8-4.9-0.3
				c-2.6,0.8-3,4.6-5.3,5.9c-1.3,0.7-2.9,0.5-4.2-0.2c-1.3-0.7-2.2-1.9-3.1-3.1c-1.7-2.5-3-5.3-3.8-8.3c0-0.2,0-0.4-0.1-0.6
				C205.2,79.3,205.8,69.9,207.6,60.7z"/>
			<path class="st1" d="M206.1,89.2c0.8,2.9,2.1,5.8,3.8,8.3c0.8,1.2,1.8,2.4,3.1,3.1c1.3,0.7,2.9,0.9,4.2,0.2
				c2.4-1.3,2.8-5.1,5.3-5.9c1.6-0.5,3.3,0.3,4.9,0.3c2.2-0.1,4.1-1.8,4.9-3.8s0.7-4.3,0.4-6.5c0-0.3-0.1-0.6-0.2-0.9
				c1.5,4.3,2.1,8.8,1.5,13.3c-0.3,2.6-0.8,6.7-4.3,6.3c-2.4-0.2-4.1-2.4-6.7-2c-1.5,0.3-1.9,2.4-2.3,3.8c-0.4,1.5-1.3,3.3-2.9,3.4
				c-0.6,0-1.1-0.2-1.6-0.4c-3.5-1.6-6.2-4.9-7.7-8.4C207,96.6,206.4,92.9,206.1,89.2z"/>
		</g>
	</g>
</g>
<g>
	<g>
		<g>
			<path class="st0" d="M79.7,119c-15,2.2-29.2,9.9-40.4,20.2c13.7-10.1,31-14.9,48-14.4c-9.7,9.7-16.7,21-27.7,29.2
				c-3.5,2.6-7.3,4.9-11.3,6.8c-0.4,0.1-0.9,0.3-1.3,0.4c-3.2,0.9-6.7,1.4-10,0.5c-3.2-0.9-6.2-3.5-6.7-6.9
				c-0.3-2.5,0.7-5.2-0.4-7.6c-1.7-3.8-7.5-3.7-9.9-7.2c-1.3-1.9-1.2-4.4-0.3-6.5c0.9-2.1,2.5-3.7,4.2-5.2c3.5-3.1,7.6-5.5,12-7.2
				c0.3-0.1,0.6-0.1,0.9-0.2C51,118.4,65.4,117.7,79.7,119z"/>
			<path class="st1" d="M36,121.3c-4.4,1.7-8.4,4.1-12,7.2c-1.7,1.5-3.3,3.1-4.2,5.2c-0.9,2.1-1,4.6,0.3,6.5
				c2.4,3.4,8.2,3.4,9.9,7.2c1.1,2.3,0,5,0.4,7.6c0.5,3.3,3.4,6,6.7,6.9c3.2,0.9,6.7,0.4,10-0.5c0.4-0.1,0.9-0.3,1.3-0.4
				c-6.3,2.9-13.1,4.7-20.1,4.5c-4-0.1-10.3-0.2-10.4-5.5c-0.1-3.7,3-6.7,1.9-10.6c-0.6-2.3-4-2.6-6.1-2.9c-2.4-0.4-5.3-1.5-5.7-3.9
				c-0.1-0.9,0.1-1.7,0.4-2.5c1.9-5.7,6.4-10.2,11.6-13.2C24.9,124,30.5,122.5,36,121.3z"/>
		</g>
		<g>
			<path class="st0" d="M88.1,109.3C79.9,96.6,67,86.8,53,80.9c14.9,8.3,26.4,22.1,33,37.8c-12.9-4.8-26-6.5-38-13.2
				c-3.8-2.1-7.5-4.6-10.9-7.5c-0.3-0.3-0.6-0.7-0.9-1c-2.2-2.6-4.1-5.5-4.6-8.9c-0.5-3.3,0.6-7.1,3.5-8.9c2.2-1.4,5-1.6,6.7-3.5
				c2.7-3.1,0.3-8.4,2.4-12c1.2-1.9,3.5-2.9,5.7-3c2.3,0,4.4,0.7,6.5,1.7c4.3,2,8.2,4.7,11.5,7.9c0.2,0.2,0.3,0.5,0.5,0.7
				C76.8,82.9,83.5,95.8,88.1,109.3z"/>
			<path class="st1" d="M68,70.5c-3.3-3.3-7.2-6-11.5-7.9c-2-0.9-4.2-1.7-6.5-1.7c-2.3,0-4.6,1-5.7,3c-2.1,3.6,0.3,8.8-2.4,12
				c-1.7,1.9-4.6,2.1-6.7,3.5c-2.8,1.8-4,5.6-3.5,8.9c0.5,3.3,2.4,6.3,4.6,8.9c0.3,0.3,0.6,0.7,0.9,1c-5.3-4.5-9.7-10-12.4-16.4
				c-1.6-3.7-4.1-9.4,0.7-11.7c3.3-1.6,7.3-0.1,10.4-2.7c1.8-1.5,0.7-4.7,0.1-6.8c-0.7-2.4-0.8-5.4,1.2-6.8c0.7-0.5,1.6-0.6,2.5-0.7
				c6-0.6,12,1.6,16.8,5.1C61,61.5,64.6,65.9,68,70.5z"/>
		</g>
		<g>
			<path class="st0" d="M104.3,114.3c8.2-12.8,11.7-28.5,11.3-43.7c-1.4,16.9-9.2,33.2-20.8,45.6c-0.9-13.7-4.8-26.4-3.7-40.1
				c0.3-4.3,1.1-8.7,2.3-13c0.2-0.4,0.4-0.8,0.6-1.2c1.4-3.1,3.3-6,6.2-7.9c2.8-1.9,6.7-2.3,9.5-0.5c2.1,1.4,3.5,4,5.9,4.7
				c4,1.2,7.8-3.2,11.9-2.7c2.2,0.3,4.1,2,5.1,4c1,2,1.2,4.4,1.2,6.6c0,4.7-0.9,9.3-2.5,13.7c-0.1,0.3-0.3,0.5-0.4,0.8
				C123.7,93,114.7,104.4,104.3,114.3z"/>
			<path class="st1" d="M131.3,79.9c1.6-4.4,2.5-9.1,2.5-13.7c0-2.2-0.2-4.6-1.2-6.6c-1-2-2.8-3.7-5.1-4c-4.1-0.5-7.9,3.9-11.9,2.7
				c-2.4-0.7-3.8-3.3-5.9-4.7c-2.8-1.8-6.7-1.4-9.5,0.5c-2.8,1.9-4.7,4.8-6.2,7.9c-0.2,0.4-0.4,0.8-0.6,1.2c1.9-6.7,5.1-13,9.8-18.1
				c2.7-2.9,6.9-7.6,11-4.2c2.8,2.4,3.1,6.7,6.7,8.4c2.2,1,4.6-1.3,6.2-2.7c1.9-1.6,4.6-3,6.7-1.7c0.7,0.5,1.2,1.2,1.7,1.9
				c3,5.2,3.5,11.5,2.3,17.4C136.7,69.7,134.2,74.9,131.3,79.9z"/>
		</g>
		<g>
			<path class="st0" d="M101.9,130.1c14.9,2.9,30.9,0.4,44.8-5.6c-16.3,5-34.2,3.8-50.1-2.4c12.4-5.9,22.7-14.2,35.8-18.3
				c4.2-1.3,8.5-2.2,12.9-2.6c0.5,0,0.9,0,1.4,0.1c3.4,0.2,6.8,0.9,9.6,2.8c2.8,1.9,4.7,5.4,4,8.7c-0.5,2.5-2.4,4.7-2.2,7.3
				c0.4,4.1,5.9,6,6.9,10c0.6,2.2-0.3,4.5-1.8,6.2c-1.5,1.7-3.6,2.7-5.7,3.5c-4.4,1.7-9,2.6-13.7,2.8c-0.3,0-0.6-0.1-0.9-0.1
				C128.8,140.2,114.9,136.1,101.9,130.1z"/>
			<path class="st1" d="M143.9,142.4c4.7-0.1,9.3-1.1,13.7-2.8c2.1-0.8,4.2-1.9,5.7-3.5c1.5-1.7,2.4-4,1.8-6.2
				c-1.1-4-6.6-5.9-6.9-10c-0.2-2.5,1.6-4.8,2.2-7.3c0.7-3.3-1.2-6.7-4-8.7c-2.8-1.9-6.2-2.6-9.6-2.8c-0.4,0-0.9-0.1-1.4-0.1
				c6.9-0.7,14-0.1,20.5,2.4c3.7,1.4,9.7,3.6,8,8.6c-1.2,3.5-5,5.4-5.3,9.4c-0.2,2.4,2.9,3.8,4.8,4.8c2.2,1.2,4.5,3.1,4,5.6
				c-0.2,0.8-0.7,1.6-1.2,2.3c-3.7,4.7-9.4,7.5-15.3,8.6C155.3,143.6,149.5,143.2,143.9,142.4z"/>
		</g>
		<g>
			<path class="st0" d="M86.7,132.9c0.6,15.2,6.7,30.1,15.7,42.3c-8.6-14.7-11.5-32.5-9.1-49.3c8.6,10.7,19,18.9,26,30.7
				c2.2,3.7,4.1,7.8,5.5,12c0.1,0.4,0.2,0.9,0.3,1.3c0.6,3.3,0.7,6.8-0.6,10s-4.2,5.8-7.5,5.9c-2.5,0.1-5.1-1.2-7.6-0.4
				c-3.9,1.3-4.5,7.1-8.2,9.1c-2,1.1-4.5,0.7-6.5-0.4c-2-1.1-3.4-2.9-4.7-4.7c-2.7-3.8-4.6-8.2-5.8-12.7c0-0.3-0.1-0.6-0.1-0.9
				C83,161.4,83.8,146.9,86.7,132.9z"/>
			<path class="st1" d="M84.2,176.6c1.2,4.5,3.2,8.8,5.8,12.7c1.3,1.8,2.8,3.6,4.7,4.7c2,1.1,4.5,1.4,6.5,0.4c3.7-2,4.2-7.8,8.2-9.1
				c2.4-0.8,5,0.5,7.6,0.4c3.4-0.1,6.3-2.7,7.5-5.9s1.1-6.6,0.6-10c-0.1-0.4-0.2-0.9-0.3-1.3c2.2,6.6,3.3,13.6,2.3,20.5
				c-0.5,3.9-1.3,10.2-6.6,9.7c-3.7-0.3-6.4-3.7-10.3-3c-2.4,0.4-3,3.7-3.5,5.8c-0.6,2.4-2,5.1-4.5,5.2c-0.9,0-1.7-0.3-2.5-0.6
				c-5.4-2.5-9.5-7.5-11.9-13C85.7,187.9,84.8,182.2,84.2,176.6z"/>
		</g>
	</g>
</g>
</svg>
