<?xml version="1.0" encoding="utf-8"?>
<!-- Generator: Adobe Illustrator 21.0.0, SVG Export Plug-In . SVG Version: 6.00 Build 0)  -->
<svg version="1.1" id="Layer_1" xmlns="http://www.w3.org/2000/svg" xmlns:xlink="http://www.w3.org/1999/xlink" x="0px" y="0px"
	 viewBox="0 0 50 50" style="enable-background:new 0 0 50 50;" xml:space="preserve">
<style type="text/css">
	.st0{opacity:0.35;}
	.st1{fill:#FFC5C0;}
	.st2{fill:#FFBEB9;}
	.st3{fill:#F35F73;}
	.st4{clip-path:url(#SVGID_4_);fill:#EA425F;}
	.st5{clip-path:url(#SVGID_7_);fill:#EA425F;}
	.st6{clip-path:url(#SVGID_9_);fill:#EA425F;}
	.st7{fill:#EA425F;}
	.st8{clip-path:url(#SVGID_11_);fill:#EA425F;}
	.st9{fill:#FFFFFF;}
	.st10{fill:none;}
	.st11{fill:#EBEFF2;}
	.st12{fill:#DAE0E5;}
</style>
<g class="st0">
	<g>
		<g>
			<path class="st1" d="M6.9,10.9c-0.4,0.1-0.9,0.3-1.2,0.6C6.1,11.2,6.6,11,7.1,11c-0.3,0.3-0.5,0.6-0.8,0.9C6.2,12,6.1,12,6,12.1
				c0,0,0,0,0,0c-0.1,0-0.2,0-0.3,0c-0.1,0-0.2-0.1-0.2-0.2c0-0.1,0-0.2,0-0.2c-0.1-0.1-0.2-0.1-0.3-0.2c0-0.1,0-0.1,0-0.2
				c0-0.1,0.1-0.1,0.1-0.2C5.4,11,5.5,11,5.6,10.9c0,0,0,0,0,0C6.1,10.8,6.5,10.8,6.9,10.9z"/>
			<path class="st2" d="M5.6,10.9c-0.1,0-0.2,0.1-0.4,0.2c0,0-0.1,0.1-0.1,0.2c0,0.1,0,0.1,0,0.2c0.1,0.1,0.2,0.1,0.3,0.2
				c0,0.1,0,0.1,0,0.2c0,0.1,0.1,0.2,0.2,0.2c0.1,0,0.2,0,0.3,0c0,0,0,0,0,0c-0.2,0.1-0.4,0.1-0.6,0.1c-0.1,0-0.3,0-0.3-0.2
				c0-0.1,0.1-0.2,0.1-0.3c0-0.1-0.1-0.1-0.2-0.1c-0.1,0-0.2,0-0.2-0.1c0,0,0-0.1,0-0.1c0.1-0.2,0.2-0.3,0.3-0.4
				C5.3,11,5.5,11,5.6,10.9z"/>
		</g>
		<g>
			<path class="st1" d="M7.2,10.6c-0.2-0.4-0.6-0.7-1-0.8c0.4,0.2,0.8,0.6,1,1.1c-0.4-0.1-0.8-0.2-1.1-0.4c-0.1-0.1-0.2-0.1-0.3-0.2
				c0,0,0,0,0,0C5.6,10.1,5.5,10,5.5,9.9c0-0.1,0-0.2,0.1-0.3c0.1,0,0.1,0,0.2-0.1c0.1-0.1,0-0.2,0.1-0.4C5.9,9.2,6,9.1,6,9.1
				c0.1,0,0.1,0,0.2,0c0.1,0.1,0.2,0.1,0.3,0.2c0,0,0,0,0,0C6.8,9.8,7,10.2,7.2,10.6z"/>
			<path class="st2" d="M6.6,9.4C6.5,9.3,6.3,9.3,6.2,9.2c-0.1,0-0.1-0.1-0.2,0c-0.1,0-0.1,0-0.2,0.1c-0.1,0.1,0,0.3-0.1,0.4
				c0,0.1-0.1,0.1-0.2,0.1C5.5,9.7,5.5,9.8,5.5,9.9c0,0.1,0.1,0.2,0.1,0.3c0,0,0,0,0,0c-0.2-0.1-0.3-0.3-0.4-0.5
				c0-0.1-0.1-0.3,0-0.3c0.1,0,0.2,0,0.3-0.1c0.1,0,0-0.1,0-0.2c0-0.1,0-0.2,0-0.2c0,0,0,0,0.1,0c0.2,0,0.4,0,0.5,0.2
				C6.4,9.2,6.5,9.3,6.6,9.4z"/>
		</g>
		<g>
			<path class="st1" d="M7.6,10.7C7.9,10.3,8,9.9,8,9.4c0,0.5-0.3,1-0.6,1.3c0-0.4-0.1-0.8-0.1-1.2c0-0.1,0-0.3,0.1-0.4c0,0,0,0,0,0
				c0-0.1,0.1-0.2,0.2-0.2c0.1-0.1,0.2-0.1,0.3,0C7.8,9,7.9,9,8,9.1C8.1,9.1,8.2,9,8.3,9C8.4,9,8.4,9,8.5,9.1c0,0.1,0,0.1,0,0.2
				c0,0.1,0,0.3-0.1,0.4c0,0,0,0,0,0C8.2,10.1,7.9,10.4,7.6,10.7z"/>
			<path class="st2" d="M8.4,9.7c0-0.1,0.1-0.3,0.1-0.4c0-0.1,0-0.1,0-0.2C8.4,9,8.4,9,8.3,9C8.2,9,8.1,9.1,8,9.1
				C7.9,9,7.8,9,7.8,8.9c-0.1-0.1-0.2,0-0.3,0C7.4,9,7.4,9.1,7.3,9.2c0,0,0,0,0,0C7.4,9,7.5,8.8,7.6,8.7c0.1-0.1,0.2-0.2,0.3-0.1
				C8,8.6,8,8.8,8.1,8.8c0.1,0,0.1,0,0.2-0.1c0.1,0,0.1-0.1,0.2-0.1c0,0,0,0,0,0.1c0.1,0.2,0.1,0.3,0.1,0.5C8.6,9.4,8.5,9.6,8.4,9.7
				z"/>
		</g>
		<g>
			<path class="st1" d="M7.6,11.2c0.4,0.1,0.9,0,1.3-0.2c-0.5,0.1-1,0.1-1.5-0.1c0.4-0.2,0.7-0.4,1.1-0.5c0.1,0,0.3-0.1,0.4-0.1
				c0,0,0,0,0,0c0.1,0,0.2,0,0.3,0.1c0.1,0.1,0.1,0.2,0.1,0.3c0,0.1-0.1,0.1-0.1,0.2c0,0.1,0.2,0.2,0.2,0.3c0,0.1,0,0.1-0.1,0.2
				c0,0-0.1,0.1-0.2,0.1c-0.1,0.1-0.3,0.1-0.4,0.1c0,0,0,0,0,0C8.3,11.5,7.9,11.4,7.6,11.2z"/>
			<path class="st2" d="M8.8,11.5c0.1,0,0.3,0,0.4-0.1c0.1,0,0.1-0.1,0.2-0.1c0,0,0.1-0.1,0.1-0.2c0-0.1-0.2-0.2-0.2-0.3
				c0-0.1,0-0.1,0.1-0.2c0-0.1,0-0.2-0.1-0.3c-0.1-0.1-0.2-0.1-0.3-0.1c0,0,0,0,0,0c0.2,0,0.4,0,0.6,0.1c0.1,0,0.3,0.1,0.2,0.3
				c0,0.1-0.1,0.2-0.2,0.3c0,0.1,0.1,0.1,0.1,0.1c0.1,0,0.1,0.1,0.1,0.2c0,0,0,0,0,0.1c-0.1,0.1-0.3,0.2-0.5,0.3
				C9.1,11.6,9,11.6,8.8,11.5z"/>
		</g>
		<g>
			<path class="st1" d="M7.1,11.3c0,0.4,0.2,0.9,0.5,1.2c-0.3-0.4-0.3-1-0.3-1.4c0.3,0.3,0.6,0.6,0.8,0.9c0.1,0.1,0.1,0.2,0.2,0.4
				c0,0,0,0,0,0c0,0.1,0,0.2,0,0.3c0,0.1-0.1,0.2-0.2,0.2c-0.1,0-0.2,0-0.2,0c-0.1,0-0.1,0.2-0.2,0.3c-0.1,0-0.1,0-0.2,0
				c-0.1,0-0.1-0.1-0.1-0.1c-0.1-0.1-0.1-0.2-0.2-0.4c0,0,0,0,0,0C7,12.1,7,11.7,7.1,11.3z"/>
			<path class="st2" d="M7,12.5c0,0.1,0.1,0.3,0.2,0.4c0,0.1,0.1,0.1,0.1,0.1c0.1,0,0.1,0,0.2,0c0.1-0.1,0.1-0.2,0.2-0.3
				c0.1,0,0.1,0,0.2,0c0.1,0,0.2-0.1,0.2-0.2c0-0.1,0-0.2,0-0.3c0,0,0,0,0,0c0.1,0.2,0.1,0.4,0.1,0.6c0,0.1,0,0.3-0.2,0.3
				c-0.1,0-0.2-0.1-0.3-0.1c-0.1,0-0.1,0.1-0.1,0.2c0,0.1-0.1,0.1-0.1,0.2c0,0-0.1,0-0.1,0c-0.2-0.1-0.3-0.2-0.3-0.4
				C7.1,12.9,7.1,12.7,7,12.5z"/>
		</g>
	</g>
</g>
<g class="st0">
	<g>
		<g>
			<path class="st1" d="M8.4,16.4c-0.7,0.1-1.3,0.4-1.8,0.9c0.6-0.5,1.4-0.7,2.2-0.6C8.3,17.1,8,17.6,7.5,18
				c-0.2,0.1-0.3,0.2-0.5,0.3c0,0,0,0-0.1,0c-0.1,0-0.3,0.1-0.4,0c-0.1,0-0.3-0.2-0.3-0.3c0-0.1,0-0.2,0-0.3
				c-0.1-0.2-0.3-0.2-0.4-0.3c-0.1-0.1-0.1-0.2,0-0.3c0-0.1,0.1-0.2,0.2-0.2c0.2-0.1,0.3-0.2,0.5-0.3c0,0,0,0,0,0
				C7.1,16.4,7.8,16.3,8.4,16.4z"/>
			<path class="st2" d="M6.5,16.5c-0.2,0.1-0.4,0.2-0.5,0.3c-0.1,0.1-0.1,0.1-0.2,0.2c0,0.1,0,0.2,0,0.3c0.1,0.2,0.4,0.2,0.4,0.3
				c0,0.1,0,0.2,0,0.3c0,0.2,0.2,0.3,0.3,0.3c0.1,0,0.3,0,0.4,0c0,0,0,0,0.1,0c-0.3,0.1-0.6,0.2-0.9,0.2c-0.2,0-0.5,0-0.5-0.2
				c0-0.2,0.1-0.3,0.1-0.5c0-0.1-0.2-0.1-0.3-0.1c-0.1,0-0.2-0.1-0.3-0.2c0,0,0-0.1,0-0.1c0.1-0.3,0.3-0.5,0.5-0.6
				C6,16.6,6.2,16.5,6.5,16.5z"/>
		</g>
		<g>
			<path class="st1" d="M8.8,16c-0.4-0.6-1-1-1.6-1.3c0.7,0.4,1.2,1,1.5,1.7c-0.6-0.2-1.2-0.3-1.7-0.6c-0.2-0.1-0.3-0.2-0.5-0.3
				c0,0,0,0,0,0c-0.1-0.1-0.2-0.2-0.2-0.4c0-0.2,0-0.3,0.2-0.4c0.1-0.1,0.2-0.1,0.3-0.2c0.1-0.1,0-0.4,0.1-0.5
				c0.1-0.1,0.2-0.1,0.3-0.1c0.1,0,0.2,0,0.3,0.1c0.2,0.1,0.4,0.2,0.5,0.4c0,0,0,0,0,0C8.3,14.8,8.6,15.3,8.8,16z"/>
			<path class="st2" d="M7.9,14.2c-0.2-0.1-0.3-0.3-0.5-0.4c-0.1,0-0.2-0.1-0.3-0.1c-0.1,0-0.2,0-0.3,0.1c-0.1,0.2,0,0.4-0.1,0.5
				c-0.1,0.1-0.2,0.1-0.3,0.2c-0.1,0.1-0.2,0.3-0.2,0.4c0,0.2,0.1,0.3,0.2,0.4c0,0,0,0,0,0C6.3,15.2,6.1,15,6,14.7
				c-0.1-0.2-0.2-0.4,0-0.5c0.2-0.1,0.3,0,0.5-0.1c0.1-0.1,0-0.2,0-0.3c0-0.1,0-0.2,0.1-0.3c0,0,0.1,0,0.1,0c0.3,0,0.5,0.1,0.8,0.2
				C7.6,13.8,7.8,14,7.9,14.2z"/>
		</g>
		<g>
			<path class="st1" d="M9.5,16.2c0.4-0.6,0.5-1.3,0.5-2C10,15,9.6,15.7,9.1,16.3c0-0.6-0.2-1.2-0.2-1.8c0-0.2,0-0.4,0.1-0.6
				c0,0,0,0,0-0.1c0.1-0.1,0.2-0.3,0.3-0.4c0.1-0.1,0.3-0.1,0.4,0c0.1,0.1,0.2,0.2,0.3,0.2c0.2,0.1,0.4-0.1,0.5-0.1
				c0.1,0,0.2,0.1,0.2,0.2c0,0.1,0.1,0.2,0.1,0.3c0,0.2,0,0.4-0.1,0.6c0,0,0,0,0,0C10.4,15.2,10,15.7,9.5,16.2z"/>
			<path class="st2" d="M10.8,14.6c0.1-0.2,0.1-0.4,0.1-0.6c0-0.1,0-0.2-0.1-0.3c0-0.1-0.1-0.2-0.2-0.2c-0.2,0-0.4,0.2-0.5,0.1
				c-0.1,0-0.2-0.1-0.3-0.2c-0.1-0.1-0.3-0.1-0.4,0c-0.1,0.1-0.2,0.2-0.3,0.4c0,0,0,0,0,0.1c0.1-0.3,0.2-0.6,0.4-0.8
				c0.1-0.1,0.3-0.3,0.5-0.2c0.1,0.1,0.1,0.3,0.3,0.4c0.1,0,0.2-0.1,0.3-0.1c0.1-0.1,0.2-0.1,0.3-0.1c0,0,0.1,0.1,0.1,0.1
				c0.1,0.2,0.2,0.5,0.1,0.8C11,14.2,10.9,14.4,10.8,14.6z"/>
		</g>
		<g>
			<path class="st1" d="M9.4,16.9c0.7,0.1,1.4,0,2-0.3c-0.7,0.2-1.5,0.2-2.3-0.1c0.6-0.3,1-0.6,1.6-0.8c0.2-0.1,0.4-0.1,0.6-0.1
				c0,0,0,0,0.1,0c0.2,0,0.3,0,0.4,0.1c0.1,0.1,0.2,0.2,0.2,0.4c0,0.1-0.1,0.2-0.1,0.3c0,0.2,0.3,0.3,0.3,0.5c0,0.1,0,0.2-0.1,0.3
				c-0.1,0.1-0.2,0.1-0.3,0.2c-0.2,0.1-0.4,0.1-0.6,0.1c0,0,0,0,0,0C10.7,17.4,10,17.2,9.4,16.9z"/>
			<path class="st2" d="M11.3,17.5c0.2,0,0.4,0,0.6-0.1c0.1,0,0.2-0.1,0.3-0.2c0.1-0.1,0.1-0.2,0.1-0.3c0-0.2-0.3-0.3-0.3-0.5
				c0-0.1,0.1-0.2,0.1-0.3c0-0.1-0.1-0.3-0.2-0.4c-0.1-0.1-0.3-0.1-0.4-0.1c0,0,0,0-0.1,0c0.3,0,0.6,0,0.9,0.1
				c0.2,0.1,0.4,0.2,0.4,0.4c-0.1,0.2-0.2,0.2-0.2,0.4c0,0.1,0.1,0.2,0.2,0.2c0.1,0.1,0.2,0.1,0.2,0.3c0,0,0,0.1-0.1,0.1
				c-0.2,0.2-0.4,0.3-0.7,0.4C11.8,17.5,11.6,17.5,11.3,17.5z"/>
		</g>
		<g>
			<path class="st1" d="M8.8,17c0,0.7,0.3,1.4,0.7,1.9c-0.4-0.7-0.5-1.5-0.4-2.2c0.4,0.5,0.9,0.9,1.2,1.4c0.1,0.2,0.2,0.4,0.2,0.5
				c0,0,0,0,0,0.1c0,0.2,0,0.3,0,0.4s-0.2,0.3-0.3,0.3c-0.1,0-0.2-0.1-0.3,0c-0.2,0.1-0.2,0.3-0.4,0.4c-0.1,0-0.2,0-0.3,0
				c-0.1,0-0.2-0.1-0.2-0.2c-0.1-0.2-0.2-0.4-0.3-0.6c0,0,0,0,0,0C8.6,18.3,8.6,17.7,8.8,17z"/>
			<path class="st2" d="M8.6,19c0.1,0.2,0.1,0.4,0.3,0.6C9,19.6,9,19.7,9.1,19.8c0.1,0.1,0.2,0.1,0.3,0c0.2-0.1,0.2-0.4,0.4-0.4
				c0.1,0,0.2,0,0.3,0c0.2,0,0.3-0.1,0.3-0.3s0.1-0.3,0-0.4c0,0,0,0,0-0.1c0.1,0.3,0.1,0.6,0.1,0.9c0,0.2-0.1,0.5-0.3,0.4
				c-0.2,0-0.3-0.2-0.5-0.1c-0.1,0-0.1,0.2-0.2,0.3c0,0.1-0.1,0.2-0.2,0.2c0,0-0.1,0-0.1,0c-0.2-0.1-0.4-0.3-0.5-0.6
				C8.7,19.5,8.7,19.2,8.6,19z"/>
		</g>
	</g>
</g>
<g id="MAP">
	<g>
		<g>
			<path id="SVGID_1_" class="st3" d="M15.5,40c-0.1-0.2-0.2-0.4-0.4-0.6c-0.1-0.1-0.1-0.2-0.2-0.2c-0.1,0-0.2,0-0.3,0
				s-0.1-0.2-0.1-0.3l0.1-0.1c0-0.1,0-0.1,0-0.2c0-0.1-0.1-0.2-0.2-0.3c-0.1-0.1-0.2-0.1-0.3-0.1c-0.1,0.1-0.2,0.2-0.3,0.2
				c-0.4,0.3-0.8-0.5-1-0.8c-0.1-0.1-0.1-0.1-0.2,0c0-0.1-0.1-0.1-0.2,0c0,0,0,0,0,0.1c-0.1,0.1-0.3,0-0.4,0.1
				c-0.1,0.1-0.1,0.2-0.1,0.2c0,0.1-0.1,0.1-0.2,0.1c0,0.1-0.1,0.2-0.1,0.4c0,0.1-0.1,0.2-0.1,0.2h-0.1c-0.1,0-0.2,0-0.3,0.1
				S11,39,11,39.1c0.1,0.1,0,0.1-0.1,0.1c-0.1,0.1-0.3,0-0.4,0c0,0.1,0,0.3,0,0.4c-0.1,0.1-0.3-0.1-0.5,0c-0.1,0.1-0.1,0.2,0,0.3
				s0.1,0.2,0.2,0.3c0,0,0,0.1,0.1,0.1c0,0,0.1,0.1,0.2,0.1c0.1,0,0.2,0,0.3,0.1s0.1,0.2,0.1,0.3s-0.2,0.2-0.2,0.1
				c0-0.2-0.2-0.3-0.4-0.3c0,0.3,0.3,0.5,0.3,0.8c0,0.1,0,0.1,0,0.2c0,0.1,0.2,0.1,0.3,0s0.1-0.2,0.2-0.3c0.1-0.1,0.2-0.2,0.3-0.1
				c0.1,0.1,0,0.3,0.2,0.4c0.1-0.1,0.3-0.2,0.4-0.4c0-0.1,0.1-0.2,0.1-0.2c0-0.1-0.1-0.2-0.2-0.2c-0.1,0-0.1,0-0.2,0
				c-0.1,0-0.2-0.1-0.3-0.2c0-0.1,0-0.2,0-0.4c0-0.1,0-0.1,0.1-0.2c0.1-0.1,0.3-0.1,0.4,0.1c0.1,0.1,0.2,0.3,0.3,0.4
				c0.1,0,0.1,0.1,0.2,0.1c0.1,0.1,0.1,0.2,0.1,0.4c0,0.1-0.1,0.2-0.3,0.2c0,0.1,0.1,0.1,0.1,0.2c0.1,0.1,0,0.2,0,0.3
				c-0.1,0.2-0.1,0.5-0.3,0.7c-0.1,0.1-0.3,0.3-0.3,0.4c-0.1,0.3,0,0.6,0.2,0.7c0.1,0.1,0.2,0.1,0.3,0.3s0,0.4-0.1,0.4
				c0,0-0.1,0-0.1,0.1c-0.1,0.1-0.1,0.4,0.1,0.5c0.1,0.1,0.3,0.1,0.5,0.1c0.1,0,0.2,0,0.3,0s0.2-0.1,0.2-0.2c0-0.2-0.2-0.3-0.3-0.5
				s0-0.4,0.1-0.6c0,0,0.1-0.1,0.1,0v0.1c0,0.1,0,0.1,0,0.2c0,0.1,0,0.1,0,0.2c0,0.2,0.3,0.2,0.3,0.4s-0.1,0.3-0.2,0.4V45
				c0,0.1,0.1,0.1,0.1,0.1c0.1,0,0.2,0,0.3-0.1s0.3-0.2,0.4-0.4c0.1-0.2,0-0.4,0.1-0.6l0.1-0.1c0.1,0,0.2,0.1,0.3,0.2
				c0.1,0.1,0,0.1,0.1,0s0.1-0.2,0.1-0.4c0-0.6-0.3-1.2,0-1.7c0-0.1,0.1-0.2,0.1-0.2c0-0.2-0.1-0.3-0.1-0.5s0.1-0.4,0.2-0.6
				c0.1-0.2,0.3-0.3,0.4-0.5C15.6,40.2,15.6,40.2,15.5,40z"/>
		</g>
		<g>
			<g>
				<defs>
					<path id="SVGID_2_" d="M15.5,40c-0.1-0.2-0.2-0.4-0.4-0.6c-0.1-0.1-0.1-0.2-0.2-0.2c-0.1,0-0.2,0-0.3,0s-0.1-0.2-0.1-0.3
						l0.1-0.1c0-0.1,0-0.1,0-0.2c0-0.1-0.1-0.2-0.2-0.3c-0.1-0.1-0.2-0.1-0.3-0.1c-0.1,0.1-0.2,0.2-0.3,0.2c-0.4,0.3-0.8-0.5-1-0.8
						c-0.1-0.1-0.1-0.1-0.2,0c0-0.1-0.1-0.1-0.2,0c0,0,0,0,0,0.1c-0.1,0.1-0.3,0-0.4,0.1c-0.1,0.1-0.1,0.2-0.1,0.2
						c0,0.1-0.1,0.1-0.2,0.1c0,0.1-0.1,0.2-0.1,0.4c0,0.1-0.1,0.2-0.1,0.2h-0.1c-0.1,0-0.2,0-0.3,0.1S11,39,11,39.1
						c0.1,0.1,0,0.1-0.1,0.1c-0.1,0.1-0.3,0-0.4,0c0,0.1,0,0.3,0,0.4c-0.1,0.1-0.3-0.1-0.5,0c-0.1,0.1-0.1,0.2,0,0.3
						s0.1,0.2,0.2,0.3c0,0,0,0.1,0.1,0.1c0,0,0.1,0.1,0.2,0.1c0.1,0,0.2,0,0.3,0.1s0.1,0.2,0.1,0.3s-0.2,0.2-0.2,0.1
						c0-0.2-0.2-0.3-0.4-0.3c0,0.3,0.3,0.5,0.3,0.8c0,0.1,0,0.1,0,0.2c0,0.1,0.2,0.1,0.3,0s0.1-0.2,0.2-0.3c0.1-0.1,0.2-0.2,0.3-0.1
						c0.1,0.1,0,0.3,0.2,0.4c0.1-0.1,0.3-0.2,0.4-0.4c0-0.1,0.1-0.2,0.1-0.2c0-0.1-0.1-0.2-0.2-0.2c-0.1,0-0.1,0-0.2,0
						c-0.1,0-0.2-0.1-0.3-0.2c0-0.1,0-0.2,0-0.4c0-0.1,0-0.1,0.1-0.2c0.1-0.1,0.3-0.1,0.4,0.1c0.1,0.1,0.2,0.3,0.3,0.4
						c0.1,0,0.1,0.1,0.2,0.1c0.1,0.1,0.1,0.2,0.1,0.4c0,0.1-0.1,0.2-0.3,0.2c0,0.1,0.1,0.1,0.1,0.2c0.1,0.1,0,0.2,0,0.3
						c-0.1,0.2-0.1,0.5-0.3,0.7c-0.1,0.1-0.3,0.3-0.3,0.4c-0.1,0.3,0,0.6,0.2,0.7c0.1,0.1,0.2,0.1,0.3,0.3s0,0.4-0.1,0.4
						c0,0-0.1,0-0.1,0.1c-0.1,0.1-0.1,0.4,0.1,0.5c0.1,0.1,0.3,0.1,0.5,0.1c0.1,0,0.2,0,0.3,0s0.2-0.1,0.2-0.2
						c0-0.2-0.2-0.3-0.3-0.5s0-0.4,0.1-0.6c0,0,0.1-0.1,0.1,0v0.1c0,0.1,0,0.1,0,0.2c0,0.1,0,0.1,0,0.2c0,0.2,0.3,0.2,0.3,0.4
						s-0.1,0.3-0.2,0.4V45c0,0.1,0.1,0.1,0.1,0.1c0.1,0,0.2,0,0.3-0.1s0.3-0.2,0.4-0.4c0.1-0.2,0-0.4,0.1-0.6l0.1-0.1
						c0.1,0,0.2,0.1,0.3,0.2c0.1,0.1,0,0.1,0.1,0s0.1-0.2,0.1-0.4c0-0.6-0.3-1.2,0-1.7c0-0.1,0.1-0.2,0.1-0.2c0-0.2-0.1-0.3-0.1-0.5
						s0.1-0.4,0.2-0.6c0.1-0.2,0.3-0.3,0.4-0.5C15.6,40.2,15.6,40.2,15.5,40z"/>
				</defs>
				<clipPath id="SVGID_4_">
					<use xlink:href="#SVGID_2_"  style="overflow:visible;"/>
				</clipPath>
				<polygon class="st4" points="12.3,34.8 13.9,42.9 12.3,46.5 19.6,45.5 				"/>
			</g>
		</g>
	</g>
	<g>
		<g>
			<path id="SVGID_3_" class="st3" d="M12.7,37.3c0.1,0,0.3,0,0.4,0c0.1,0.1,0.1,0.2,0.1,0.2c0,0.1,0.1,0.2,0.2,0.2
				c0.1,0,0.2-0.1,0.3-0.2c0.2-0.2,0.5-0.3,0.8-0.3s0.5,0.3,0.7,0.5l0.1,0.1c0.1,0,0.1-0.1,0.1-0.2c0-0.1-0.1-0.2-0.1-0.2
				c0-0.1,0-0.2,0.1-0.2c0,0,0,0,0.1,0c0.2-0.1,0-0.4,0-0.6c0.1-0.2,0.3-0.2,0.4-0.1c0.2,0.1,0.2,0.2,0.4,0.1c0.2,0,0.3-0.2,0.5-0.3
				c0.1-0.1,0.2-0.1,0.3-0.1c0.2-0.1,0.3-0.3,0.5-0.3s0.3,0.1,0.5-0.1c0.1-0.1,0-0.2,0.1-0.3s0.3-0.1,0.5-0.1c0.1,0,0.3-0.1,0.4-0.1
				c0.2,0,0.1,0,0.2-0.2c0.1-0.1,0.2-0.3,0.3-0.4c0.3-0.3,0.6-0.2,1-0.2c0.3,0,0.7,0,1,0c0.1,0,0.4-0.1,0.5,0s0.1,0.4,0,0.5
				s-0.2,0.2-0.3,0.3c-0.1,0.1-0.3,0.2-0.2,0.3l0.1,0.1c0.2,0.3-0.1,0.7,0.3,0.9c0.2,0.1,0.3,0.3,0.5,0.4c0.2,0.2,0.3,0.2,0.6,0.3
				c0.4,0.2,0.4,0,0.8-0.3c0,0,0,0,0.1-0.1v-0.1c0-0.3-0.1-0.5,0-0.7c0.1-0.1,0.2-0.1,0.4-0.2s0.2-0.3,0.1-0.4
				c0-0.1-0.1-0.1-0.1-0.2c0-0.1,0.1-0.2,0.2-0.2c0.4-0.1,0.8-0.2,1.1-0.5c-0.3-0.2-0.5-0.3-0.8-0.5c-0.1-0.1-0.3-0.2-0.3-0.3
				c-0.1-0.2,0.1-0.6,0.3-0.7c0,0,0.1,0,0.1-0.1c0.1,0,0.1,0,0.2,0.1c0.1,0.2,0.1,0.5,0.3,0.5c0.1,0,0.3-0.1,0.4-0.1
				c0.1-0.1,0.1-0.1,0.3-0.1h0.1c0,0.1,0,0.1-0.1,0.2c-0.1,0.1-0.5,0.3-0.3,0.4c0.2,0.1,0.7-0.2,0.8-0.3c0.4-0.2,0.9-0.1,1.4-0.2
				c0.1,0,0.1,0,0.2,0c0.1-0.1,0.1-0.3,0.1-0.4c0.1,0,0.2-0.2,0.2-0.3s0-0.1,0-0.2c0-0.3,0.3-0.5,0.5-0.6c0.1,0,0.2,0,0.2,0
				c0.1,0,0.1,0.1,0.1,0.2c0.1,0.1,0,0.1,0,0.2c0,0.1,0,0.3,0,0.4c0,0.1,0.1,0.3,0.2,0.3h0.1c0.1,0,0-0.2,0-0.3
				c0-0.2,0.4-0.2,0.4-0.4c0-0.1,0-0.1,0-0.2c0-0.1-0.1-0.3-0.1-0.4c-0.2-0.3-0.2-0.7,0.3-0.7c0.2,0,0.3,0,0.4,0.1
				c0.2,0.1,0.3,0.3,0.4-0.1c0-0.1,0-0.2,0-0.2s-0.1,0-0.1-0.1c-0.1-0.1-0.2-0.3-0.1-0.4c0.1-0.2,0.4-0.4,0.6-0.5c0.1,0,0.1,0,0.2,0
				c0.1,0.1,0.1,0.2,0.1,0.3c0,0.1-0.1,0.2-0.2,0.2c-0.1,0.1-0.2,0.1-0.2,0.2s0,0.2,0,0.4c0,0.2,0.1,0.4,0.1,0.6
				c0,0.1,0,0.3,0.1,0.4c0.1,0.1,0.2,0.1,0.3,0.1c0.1-0.1,0-0.3,0.1-0.4c0.1-0.2,0.4-0.2,0.5-0.4c0.3-0.2,0.2-0.6,0.2-0.9
				c0-0.1,0-0.3,0-0.5c0.1-0.2,0.3-0.2,0.4-0.3c0.1-0.1,0.2-0.2,0.2-0.3c0-0.2-0.2-0.2-0.3-0.2c-0.2-0.1-0.3-0.3-0.3-0.5
				c-0.3-0.6-0.3-1.3-0.1-1.9c0.1-0.3,0.3-0.6,0.3-0.9c0-0.4-0.1-0.8-0.3-1.1c-0.7-0.4-1-0.9-1-1.5c0-0.4,0.6-0.9,1-0.7h0.1
				c0.1,0,0.1-0.1,0.1-0.2c0-0.2-0.2-0.3-0.3-0.5s-0.1-0.4-0.1-0.6s0.2-0.4,0.2-0.7c0.1-0.3,0.1-0.6,0.2-0.9c0.1-0.2,0.1-0.4,0-0.6
				c0-0.1-0.1-0.2-0.2-0.3c-0.5-0.8-1.1-1.5-1.8-2.2c-0.1-0.1-0.2-0.2-0.2-0.3c-0.1-0.1,0-0.3,0-0.4c0-0.4-0.1-0.7-0.2-1.1
				c-0.1-0.1-0.2-0.1-0.3,0c-0.1,0-0.1,0.1-0.2,0.1s-0.2-0.1-0.3-0.1c-0.1-0.1-0.2-0.1-0.3,0c-0.1,0.1,0,0.2,0,0.3
				c0,0.2-0.2,0.3-0.2,0.4s0.2,0.2,0.3,0.1c0.1,0,0.2-0.1,0.3-0.2c0.1-0.1,0.2-0.1,0.3-0.1c0.1,0,0.1,0.1,0.1,0.2
				c0,0.2,0,0.3,0.1,0.5c0,0.1,0,0.1,0,0.2s-0.1,0.1-0.2,0.1l-0.1-0.1c-0.1-0.1-0.2,0-0.3,0.1c-0.1,0.1-0.1,0.2-0.3,0.2
				c-0.1,0-0.2-0.1-0.3-0.3c-0.1-0.2-0.1-0.4-0.2-0.5c0-0.1,0-0.1-0.1-0.1h-0.1c-0.2,0-0.3,0.3-0.3,0.5c0,0.2,0,0.4,0,0.6
				c-0.1,0.3-0.3,0.5-0.5,0.6c-0.1,0-0.2,0.1-0.1,0.1c0,0,0,0,0.1,0.1c0.5,0.3,0.6,1.1,0.3,1.6c-0.1,0.2-0.3,0.4-0.2,0.5
				c0.1,0.2,0.2,0.1,0.4,0c0.2-0.1,0.3-0.1,0.4,0.1c0.2,0.3,0.2,0.7,0.1,1c0,0.3-0.1,0.6-0.1,0.9c0,0.1,0,0.3-0.1,0.4
				c0.1,0.4,0,0.4-0.1,0.5c-0.1,0.2-0.2,0.5-0.1,0.8c0,0.3,0.1,0.5,0,0.8c-0.1,0.5-0.7,0.6-0.9,1.1c-0.2,0.3-0.2,0.6-0.4,0.9
				c-0.2,0.5-0.5,0.9-0.9,1.3c-0.2,0.1-0.4,0.3-0.6,0.3c-0.1,0-0.2,0-0.3,0c-0.2,0-0.3,0.2-0.4,0.4c0,0.1,0,0.3-0.1,0.3
				c-0.1,0.1-0.3,0-0.4-0.1s-0.1-0.3-0.1-0.5c-0.1,0-0.3-0.1-0.3-0.2c0-0.2,0.2-0.2,0.3-0.3c0.1-0.1,0.2-0.2,0.3-0.3
				c0.1-0.2,0.1-0.4-0.1-0.5s-0.3,0.1-0.4,0.2c-0.2,0.4-0.8,0.4-0.7,0.9c0,0.3,0.2,0.6,0.2,1c0,0.2-0.1,0.5-0.3,0.7
				c-0.2,0.4-0.5,0.9-0.7,1.3c0,0.1-0.1,0.1-0.1,0.2s0.1,0.2,0.1,0.3c0.1,0.1,0.1,0.2,0.1,0.3s-0.1,0.2-0.2,0.2
				c-0.2,0-0.2,0.2-0.3,0.4c-0.1,0.2-0.3,0.3-0.5,0.3c0-0.1,0-0.2,0-0.2c-0.2,0-0.2,0.3-0.4,0.3c-0.1,0-0.2-0.2-0.1-0.3
				c0-0.1,0.1-0.2,0-0.3s-0.3,0-0.4,0.1s-0.2,0.3-0.4,0.3c-0.3,0-0.5-0.1-0.9,0c-0.1,0-0.1,0.1-0.2,0.1c-0.1,0.1-0.3,0.2-0.4,0.2
				c-0.2,0.2-0.6,0.3-0.9,0.3c-0.1,0-0.3,0-0.4,0s-0.2,0.2-0.3,0.2c-0.1,0-0.2,0.1-0.4,0c-0.1,0-0.2-0.2-0.1-0.3
				c-0.1,0-0.3,0.1-0.3,0.1c-0.7,0.6-1.4,1.4-1.9,2.2c-0.1,0.2-0.3,0.4-0.5,0.5c-0.1,0-0.1,0-0.2,0c-0.2,0.1-0.2,0.3-0.3,0.4
				c-0.2,0.3-0.5,0.4-0.8,0.5c-0.1,0-0.2,0-0.2,0.1C12.6,36.8,12.7,37.2,12.7,37.3z"/>
		</g>
		<g>
			<g>
				<defs>
					<path id="SVGID_6_" d="M12.7,37.3c0.1,0,0.3,0,0.4,0c0.1,0.1,0.1,0.2,0.1,0.2c0,0.1,0.1,0.2,0.2,0.2c0.1,0,0.2-0.1,0.3-0.2
						c0.2-0.2,0.5-0.3,0.8-0.3s0.5,0.3,0.7,0.5l0.1,0.1c0.1,0,0.1-0.1,0.1-0.2c0-0.1-0.1-0.2-0.1-0.2c0-0.1,0-0.2,0.1-0.2
						c0,0,0,0,0.1,0c0.2-0.1,0-0.4,0-0.6c0.1-0.2,0.3-0.2,0.4-0.1c0.2,0.1,0.2,0.2,0.4,0.1c0.2,0,0.3-0.2,0.5-0.3
						c0.1-0.1,0.2-0.1,0.3-0.1c0.2-0.1,0.3-0.3,0.5-0.3s0.3,0.1,0.5-0.1c0.1-0.1,0-0.2,0.1-0.3s0.3-0.1,0.5-0.1
						c0.1,0,0.3-0.1,0.4-0.1c0.2,0,0.1,0,0.2-0.2c0.1-0.1,0.2-0.3,0.3-0.4c0.3-0.3,0.6-0.2,1-0.2c0.3,0,0.7,0,1,0
						c0.1,0,0.4-0.1,0.5,0s0.1,0.4,0,0.5s-0.2,0.2-0.3,0.3c-0.1,0.1-0.3,0.2-0.2,0.3l0.1,0.1c0.2,0.3-0.1,0.7,0.3,0.9
						c0.2,0.1,0.3,0.3,0.5,0.4c0.2,0.2,0.3,0.2,0.6,0.3c0.4,0.2,0.4,0,0.8-0.3c0,0,0,0,0.1-0.1v-0.1c0-0.3-0.1-0.5,0-0.7
						c0.1-0.1,0.2-0.1,0.4-0.2s0.2-0.3,0.1-0.4c0-0.1-0.1-0.1-0.1-0.2c0-0.1,0.1-0.2,0.2-0.2c0.4-0.1,0.8-0.2,1.1-0.5
						c-0.3-0.2-0.5-0.3-0.8-0.5c-0.1-0.1-0.3-0.2-0.3-0.3c-0.1-0.2,0.1-0.6,0.3-0.7c0,0,0.1,0,0.1-0.1c0.1,0,0.1,0,0.2,0.1
						c0.1,0.2,0.1,0.5,0.3,0.5c0.1,0,0.3-0.1,0.4-0.1c0.1-0.1,0.1-0.1,0.3-0.1h0.1c0,0.1,0,0.1-0.1,0.2c-0.1,0.1-0.5,0.3-0.3,0.4
						c0.2,0.1,0.7-0.2,0.8-0.3c0.4-0.2,0.9-0.1,1.4-0.2c0.1,0,0.1,0,0.2,0c0.1-0.1,0.1-0.3,0.1-0.4c0.1,0,0.2-0.2,0.2-0.3
						s0-0.1,0-0.2c0-0.3,0.3-0.5,0.5-0.6c0.1,0,0.2,0,0.2,0c0.1,0,0.1,0.1,0.1,0.2c0.1,0.1,0,0.1,0,0.2c0,0.1,0,0.3,0,0.4
						c0,0.1,0.1,0.3,0.2,0.3h0.1c0.1,0,0-0.2,0-0.3c0-0.2,0.4-0.2,0.4-0.4c0-0.1,0-0.1,0-0.2c0-0.1-0.1-0.3-0.1-0.4
						c-0.2-0.3-0.2-0.7,0.3-0.7c0.2,0,0.3,0,0.4,0.1c0.2,0.1,0.3,0.3,0.4-0.1c0-0.1,0-0.2,0-0.2s-0.1,0-0.1-0.1
						c-0.1-0.1-0.2-0.3-0.1-0.4c0.1-0.2,0.4-0.4,0.6-0.5c0.1,0,0.1,0,0.2,0c0.1,0.1,0.1,0.2,0.1,0.3c0,0.1-0.1,0.2-0.2,0.2
						c-0.1,0.1-0.2,0.1-0.2,0.2s0,0.2,0,0.4c0,0.2,0.1,0.4,0.1,0.6c0,0.1,0,0.3,0.1,0.4c0.1,0.1,0.2,0.1,0.3,0.1
						c0.1-0.1,0-0.3,0.1-0.4c0.1-0.2,0.4-0.2,0.5-0.4c0.3-0.2,0.2-0.6,0.2-0.9c0-0.1,0-0.3,0-0.5c0.1-0.2,0.3-0.2,0.4-0.3
						c0.1-0.1,0.2-0.2,0.2-0.3c0-0.2-0.2-0.2-0.3-0.2c-0.2-0.1-0.3-0.3-0.3-0.5c-0.3-0.6-0.3-1.3-0.1-1.9c0.1-0.3,0.3-0.6,0.3-0.9
						c0-0.4-0.1-0.8-0.3-1.1c-0.7-0.4-1-0.9-1-1.5c0-0.4,0.6-0.9,1-0.7h0.1c0.1,0,0.1-0.1,0.1-0.2c0-0.2-0.2-0.3-0.3-0.5
						s-0.1-0.4-0.1-0.6s0.2-0.4,0.2-0.7c0.1-0.3,0.1-0.6,0.2-0.9c0.1-0.2,0.1-0.4,0-0.6c0-0.1-0.1-0.2-0.2-0.3
						c-0.5-0.8-1.1-1.5-1.8-2.2c-0.1-0.1-0.2-0.2-0.2-0.3c-0.1-0.1,0-0.3,0-0.4c0-0.4-0.1-0.7-0.2-1.1c-0.1-0.1-0.2-0.1-0.3,0
						c-0.1,0-0.1,0.1-0.2,0.1s-0.2-0.1-0.3-0.1c-0.1-0.1-0.2-0.1-0.3,0c-0.1,0.1,0,0.2,0,0.3c0,0.2-0.2,0.3-0.2,0.4s0.2,0.2,0.3,0.1
						c0.1,0,0.2-0.1,0.3-0.2c0.1-0.1,0.2-0.1,0.3-0.1c0.1,0,0.1,0.1,0.1,0.2c0,0.2,0,0.3,0.1,0.5c0,0.1,0,0.1,0,0.2
						s-0.1,0.1-0.2,0.1l-0.1-0.1c-0.1-0.1-0.2,0-0.3,0.1c-0.1,0.1-0.1,0.2-0.3,0.2c-0.1,0-0.2-0.1-0.3-0.3c-0.1-0.2-0.1-0.4-0.2-0.5
						c0-0.1,0-0.1-0.1-0.1h-0.1c-0.2,0-0.3,0.3-0.3,0.5c0,0.2,0,0.4,0,0.6c-0.1,0.3-0.3,0.5-0.5,0.6c-0.1,0-0.2,0.1-0.1,0.1
						c0,0,0,0,0.1,0.1c0.5,0.3,0.6,1.1,0.3,1.6c-0.1,0.2-0.3,0.4-0.2,0.5c0.1,0.2,0.2,0.1,0.4,0c0.2-0.1,0.3-0.1,0.4,0.1
						c0.2,0.3,0.2,0.7,0.1,1c0,0.3-0.1,0.6-0.1,0.9c0,0.1,0,0.3-0.1,0.4c0.1,0.4,0,0.4-0.1,0.5c-0.1,0.2-0.2,0.5-0.1,0.8
						c0,0.3,0.1,0.5,0,0.8c-0.1,0.5-0.7,0.6-0.9,1.1c-0.2,0.3-0.2,0.6-0.4,0.9c-0.2,0.5-0.5,0.9-0.9,1.3c-0.2,0.1-0.4,0.3-0.6,0.3
						c-0.1,0-0.2,0-0.3,0c-0.2,0-0.3,0.2-0.4,0.4c0,0.1,0,0.3-0.1,0.3c-0.1,0.1-0.3,0-0.4-0.1s-0.1-0.3-0.1-0.5
						c-0.1,0-0.3-0.1-0.3-0.2c0-0.2,0.2-0.2,0.3-0.3c0.1-0.1,0.2-0.2,0.3-0.3c0.1-0.2,0.1-0.4-0.1-0.5s-0.3,0.1-0.4,0.2
						c-0.2,0.4-0.8,0.4-0.7,0.9c0,0.3,0.2,0.6,0.2,1c0,0.2-0.1,0.5-0.3,0.7c-0.2,0.4-0.5,0.9-0.7,1.3c0,0.1-0.1,0.1-0.1,0.2
						s0.1,0.2,0.1,0.3c0.1,0.1,0.1,0.2,0.1,0.3s-0.1,0.2-0.2,0.2c-0.2,0-0.2,0.2-0.3,0.4c-0.1,0.2-0.3,0.3-0.5,0.3
						c0-0.1,0-0.2,0-0.2c-0.2,0-0.2,0.3-0.4,0.3c-0.1,0-0.2-0.2-0.1-0.3c0-0.1,0.1-0.2,0-0.3s-0.3,0-0.4,0.1s-0.2,0.3-0.4,0.3
						c-0.3,0-0.5-0.1-0.9,0c-0.1,0-0.1,0.1-0.2,0.1c-0.1,0.1-0.3,0.2-0.4,0.2c-0.2,0.2-0.6,0.3-0.9,0.3c-0.1,0-0.3,0-0.4,0
						s-0.2,0.2-0.3,0.2c-0.1,0-0.2,0.1-0.4,0c-0.1,0-0.2-0.2-0.1-0.3c-0.1,0-0.3,0.1-0.3,0.1c-0.7,0.6-1.4,1.4-1.9,2.2
						c-0.1,0.2-0.3,0.4-0.5,0.5c-0.1,0-0.1,0-0.2,0c-0.2,0.1-0.2,0.3-0.3,0.4c-0.2,0.3-0.5,0.4-0.8,0.5c-0.1,0-0.2,0-0.2,0.1
						C12.6,36.8,12.7,37.2,12.7,37.3z"/>
				</defs>
				<clipPath id="SVGID_7_">
					<use xlink:href="#SVGID_6_"  style="overflow:visible;"/>
				</clipPath>
				<polyline class="st5" points="37.3,32.1 21.7,40.2 23.6,33.5 28.4,30.2 32,24.1 				"/>
			</g>
		</g>
		<g>
			<g>
				<defs>
					<path id="SVGID_8_" d="M12.7,37.3c0.1,0,0.3,0,0.4,0c0.1,0.1,0.1,0.2,0.1,0.2c0,0.1,0.1,0.2,0.2,0.2c0.1,0,0.2-0.1,0.3-0.2
						c0.2-0.2,0.5-0.3,0.8-0.3s0.5,0.3,0.7,0.5l0.1,0.1c0.1,0,0.1-0.1,0.1-0.2c0-0.1-0.1-0.2-0.1-0.2c0-0.1,0-0.2,0.1-0.2
						c0,0,0,0,0.1,0c0.2-0.1,0-0.4,0-0.6c0.1-0.2,0.3-0.2,0.4-0.1c0.2,0.1,0.2,0.2,0.4,0.1c0.2,0,0.3-0.2,0.5-0.3
						c0.1-0.1,0.2-0.1,0.3-0.1c0.2-0.1,0.3-0.3,0.5-0.3s0.3,0.1,0.5-0.1c0.1-0.1,0-0.2,0.1-0.3s0.3-0.1,0.5-0.1
						c0.1,0,0.3-0.1,0.4-0.1c0.2,0,0.1,0,0.2-0.2c0.1-0.1,0.2-0.3,0.3-0.4c0.3-0.3,0.6-0.2,1-0.2c0.3,0,0.7,0,1,0
						c0.1,0,0.4-0.1,0.5,0s0.1,0.4,0,0.5s-0.2,0.2-0.3,0.3c-0.1,0.1-0.3,0.2-0.2,0.3l0.1,0.1c0.2,0.3-0.1,0.7,0.3,0.9
						c0.2,0.1,0.3,0.3,0.5,0.4c0.2,0.2,0.3,0.2,0.6,0.3c0.4,0.2,0.4,0,0.8-0.3c0,0,0,0,0.1-0.1v-0.1c0-0.3-0.1-0.5,0-0.7
						c0.1-0.1,0.2-0.1,0.4-0.2s0.2-0.3,0.1-0.4c0-0.1-0.1-0.1-0.1-0.2c0-0.1,0.1-0.2,0.2-0.2c0.4-0.1,0.8-0.2,1.1-0.5
						c-0.3-0.2-0.5-0.3-0.8-0.5c-0.1-0.1-0.3-0.2-0.3-0.3c-0.1-0.2,0.1-0.6,0.3-0.7c0,0,0.1,0,0.1-0.1c0.1,0,0.1,0,0.2,0.1
						c0.1,0.2,0.1,0.5,0.3,0.5c0.1,0,0.3-0.1,0.4-0.1c0.1-0.1,0.1-0.1,0.3-0.1h0.1c0,0.1,0,0.1-0.1,0.2c-0.1,0.1-0.5,0.3-0.3,0.4
						c0.2,0.1,0.7-0.2,0.8-0.3c0.4-0.2,0.9-0.1,1.4-0.2c0.1,0,0.1,0,0.2,0c0.1-0.1,0.1-0.3,0.1-0.4c0.1,0,0.2-0.2,0.2-0.3
						s0-0.1,0-0.2c0-0.3,0.3-0.5,0.5-0.6c0.1,0,0.2,0,0.2,0c0.1,0,0.1,0.1,0.1,0.2c0.1,0.1,0,0.1,0,0.2c0,0.1,0,0.3,0,0.4
						c0,0.1,0.1,0.3,0.2,0.3h0.1c0.1,0,0-0.2,0-0.3c0-0.2,0.4-0.2,0.4-0.4c0-0.1,0-0.1,0-0.2c0-0.1-0.1-0.3-0.1-0.4
						c-0.2-0.3-0.2-0.7,0.3-0.7c0.2,0,0.3,0,0.4,0.1c0.2,0.1,0.3,0.3,0.4-0.1c0-0.1,0-0.2,0-0.2s-0.1,0-0.1-0.1
						c-0.1-0.1-0.2-0.3-0.1-0.4c0.1-0.2,0.4-0.4,0.6-0.5c0.1,0,0.1,0,0.2,0c0.1,0.1,0.1,0.2,0.1,0.3c0,0.1-0.1,0.2-0.2,0.2
						c-0.1,0.1-0.2,0.1-0.2,0.2s0,0.2,0,0.4c0,0.2,0.1,0.4,0.1,0.6c0,0.1,0,0.3,0.1,0.4c0.1,0.1,0.2,0.1,0.3,0.1
						c0.1-0.1,0-0.3,0.1-0.4c0.1-0.2,0.4-0.2,0.5-0.4c0.3-0.2,0.2-0.6,0.2-0.9c0-0.1,0-0.3,0-0.5c0.1-0.2,0.3-0.2,0.4-0.3
						c0.1-0.1,0.2-0.2,0.2-0.3c0-0.2-0.2-0.2-0.3-0.2c-0.2-0.1-0.3-0.3-0.3-0.5c-0.3-0.6-0.3-1.3-0.1-1.9c0.1-0.3,0.3-0.6,0.3-0.9
						c0-0.4-0.1-0.8-0.3-1.1c-0.7-0.4-1-0.9-1-1.5c0-0.4,0.6-0.9,1-0.7h0.1c0.1,0,0.1-0.1,0.1-0.2c0-0.2-0.2-0.3-0.3-0.5
						s-0.1-0.4-0.1-0.6s0.2-0.4,0.2-0.7c0.1-0.3,0.1-0.6,0.2-0.9c0.1-0.2,0.1-0.4,0-0.6c0-0.1-0.1-0.2-0.2-0.3
						c-0.5-0.8-1.1-1.5-1.8-2.2c-0.1-0.1-0.2-0.2-0.2-0.3c-0.1-0.1,0-0.3,0-0.4c0-0.4-0.1-0.7-0.2-1.1c-0.1-0.1-0.2-0.1-0.3,0
						c-0.1,0-0.1,0.1-0.2,0.1s-0.2-0.1-0.3-0.1c-0.1-0.1-0.2-0.1-0.3,0c-0.1,0.1,0,0.2,0,0.3c0,0.2-0.2,0.3-0.2,0.4s0.2,0.2,0.3,0.1
						c0.1,0,0.2-0.1,0.3-0.2c0.1-0.1,0.2-0.1,0.3-0.1c0.1,0,0.1,0.1,0.1,0.2c0,0.2,0,0.3,0.1,0.5c0,0.1,0,0.1,0,0.2
						s-0.1,0.1-0.2,0.1l-0.1-0.1c-0.1-0.1-0.2,0-0.3,0.1c-0.1,0.1-0.1,0.2-0.3,0.2c-0.1,0-0.2-0.1-0.3-0.3c-0.1-0.2-0.1-0.4-0.2-0.5
						c0-0.1,0-0.1-0.1-0.1h-0.1c-0.2,0-0.3,0.3-0.3,0.5c0,0.2,0,0.4,0,0.6c-0.1,0.3-0.3,0.5-0.5,0.6c-0.1,0-0.2,0.1-0.1,0.1
						c0,0,0,0,0.1,0.1c0.5,0.3,0.6,1.1,0.3,1.6c-0.1,0.2-0.3,0.4-0.2,0.5c0.1,0.2,0.2,0.1,0.4,0c0.2-0.1,0.3-0.1,0.4,0.1
						c0.2,0.3,0.2,0.7,0.1,1c0,0.3-0.1,0.6-0.1,0.9c0,0.1,0,0.3-0.1,0.4c0.1,0.4,0,0.4-0.1,0.5c-0.1,0.2-0.2,0.5-0.1,0.8
						c0,0.3,0.1,0.5,0,0.8c-0.1,0.5-0.7,0.6-0.9,1.1c-0.2,0.3-0.2,0.6-0.4,0.9c-0.2,0.5-0.5,0.9-0.9,1.3c-0.2,0.1-0.4,0.3-0.6,0.3
						c-0.1,0-0.2,0-0.3,0c-0.2,0-0.3,0.2-0.4,0.4c0,0.1,0,0.3-0.1,0.3c-0.1,0.1-0.3,0-0.4-0.1s-0.1-0.3-0.1-0.5
						c-0.1,0-0.3-0.1-0.3-0.2c0-0.2,0.2-0.2,0.3-0.3c0.1-0.1,0.2-0.2,0.3-0.3c0.1-0.2,0.1-0.4-0.1-0.5s-0.3,0.1-0.4,0.2
						c-0.2,0.4-0.8,0.4-0.7,0.9c0,0.3,0.2,0.6,0.2,1c0,0.2-0.1,0.5-0.3,0.7c-0.2,0.4-0.5,0.9-0.7,1.3c0,0.1-0.1,0.1-0.1,0.2
						s0.1,0.2,0.1,0.3c0.1,0.1,0.1,0.2,0.1,0.3s-0.1,0.2-0.2,0.2c-0.2,0-0.2,0.2-0.3,0.4c-0.1,0.2-0.3,0.3-0.5,0.3
						c0-0.1,0-0.2,0-0.2c-0.2,0-0.2,0.3-0.4,0.3c-0.1,0-0.2-0.2-0.1-0.3c0-0.1,0.1-0.2,0-0.3s-0.3,0-0.4,0.1s-0.2,0.3-0.4,0.3
						c-0.3,0-0.5-0.1-0.9,0c-0.1,0-0.1,0.1-0.2,0.1c-0.1,0.1-0.3,0.2-0.4,0.2c-0.2,0.2-0.6,0.3-0.9,0.3c-0.1,0-0.3,0-0.4,0
						s-0.2,0.2-0.3,0.2c-0.1,0-0.2,0.1-0.4,0c-0.1,0-0.2-0.2-0.1-0.3c-0.1,0-0.3,0.1-0.3,0.1c-0.7,0.6-1.4,1.4-1.9,2.2
						c-0.1,0.2-0.3,0.4-0.5,0.5c-0.1,0-0.1,0-0.2,0c-0.2,0.1-0.2,0.3-0.3,0.4c-0.2,0.3-0.5,0.4-0.8,0.5c-0.1,0-0.2,0-0.2,0.1
						C12.6,36.8,12.7,37.2,12.7,37.3z"/>
				</defs>
				<clipPath id="SVGID_9_">
					<use xlink:href="#SVGID_8_"  style="overflow:visible;"/>
				</clipPath>
				<path class="st6" d="M37.9,26l-5.3-8.9c-4.3,16.1-8.3,18.8-8.3,18.8"/>
			</g>
		</g>
	</g>
	<path class="st7" d="M20.1,37.6L20,37.7c0,0.1,0,0.2,0,0.3c0,0.2,0,0.4-0.1,0.5c0,0,0,0,0,0.1c0,0-0.1,0-0.1-0.1
		c-0.2-0.2-0.3-0.5-0.5-0.6s-0.5-0.1-0.7,0.1c0,0.1-0.1,0.1-0.1,0.2c-0.1,0.1-0.3,0.1-0.4,0.2c-0.1,0.2,0,0.4,0,0.6
		c0,0.2-0.2,0.2-0.3,0.3c-0.1,0.1-0.2,0.3-0.1,0.4c0,0.1,0.1,0.1,0.1,0.1c0,0.1-0.1,0.2-0.2,0.2s-0.3,0-0.3,0l-0.1,0.1
		c-0.2,0.1-0.3-0.4-0.6-0.3c-0.1,0-0.2,0.1-0.3,0.1c0.1-0.3,0.4-0.6,0.3-0.9c-0.1-0.2-0.1-0.2-0.3-0.3c-0.1,0-0.3,0-0.3-0.1
		s0.2-0.3,0.3-0.3c0.1-0.1,0.3-0.3,0.3-0.5c0.1-0.3,0.2-0.6,0.3-0.8c0-0.1,0.1-0.1,0.2-0.2c0.1,0,0.2,0,0.3,0c0.1,0,0.1,0.1,0.1,0.2
		c0,0.1,0.1,0.1,0.2,0.1s0.1-0.2,0.2-0.2s0.3,0,0.4,0s0.2-0.1,0.2-0.2c0-0.2,0-0.3,0-0.5l0,0c0,0,0,0,0.1,0s0.3-0.1,0.4-0.1
		s0-0.2,0.1-0.3s0.2-0.2,0.3-0.1c0.1,0,0.1,0.1,0.1,0.1c0.1,0.1,0.3,0,0.4-0.1H20c0,0,0,0,0,0.1s0.1,0.1,0.1,0.2c0.1,0,0.2,0,0.3,0
		c0.1,0,0.2,0,0.3,0.1c0,0.1-0.1,0.2-0.1,0.3s0.2,0.1,0.3,0.2C21.1,36.7,20.3,37.5,20.1,37.6z"/>
	<path class="st3" d="M26.2,24.6c0.1-0.1,0.1-0.2,0.1-0.3c0-0.1,0-0.2,0.1-0.3c0.1-0.1,0.2-0.1,0.3,0c0,0.1,0,0.1,0,0.2s0,0.1,0,0.2
		v0.1c0,0,0,0,0.1,0s0.1,0,0.2,0c0.1,0.1,0,0.3,0,0.4c-0.1,0.1-0.2,0.2-0.3,0.3c-0.1,0.1-0.1,0.1-0.1,0.2c0,0-0.1,0.1-0.2,0
		c-0.1,0-0.1-0.1,0-0.2c0-0.1,0.1-0.2,0-0.2c0-0.1-0.1-0.1-0.2-0.1C26.2,24.8,26.1,24.7,26.2,24.6L26.2,24.6z"/>
	<g>
		<g>
			<path id="SVGID_5_" class="st3" d="M34.6,9.8c0.1-0.1,0.3-0.2,0.5-0.2c0.3,0,0.5,0.2,0.7,0.1c-0.1-0.1-0.2-0.2-0.2-0.3
				s0.2-0.2,0.3-0.1C36,9.4,36,9.5,36,9.5h0.1c0.4-0.4,0.7-0.7,1.1-1.1c0.1-0.1,0.1-0.1,0.1-0.2c-0.1,0.1-0.3,0.2-0.6,0.1
				c-0.1-0.1-0.3-0.2-0.4-0.4c-0.1-0.1-0.1-0.2-0.2-0.3c-0.1-0.2-0.3-0.5-0.3-0.8c0-0.1,0.4-1.1,0.3-1.1c-0.2,0-0.3,0.1-0.4,0.3
				c0,0-0.1,0.2-0.1,0.3c-0.1,0.3-0.3,0.6-0.6,0.6s-0.7,0-1,0c-0.6,0-1-0.3-1.6-0.4c-0.3-0.1-0.5-0.3-0.8-0.5
				c-0.3-0.3-0.7-0.5-1-0.8c-0.2-0.1-0.3-0.3-0.5-0.4c-0.1-0.1-0.6-1.1-0.9-0.6c-0.1,0.1,0,0.3,0,0.4S29.1,4.8,29,4.8
				c-0.1,0.1-0.1,0.2,0,0.3c-0.2,0.2,0,0.2,0.1,0.4c0.2,0.2,0.4,0.4,0.5,0.6c0.1,0.3-0.1,0.6,0,0.8c0,0.1,0,0.1,0,0.2
				s-0.1,0.2-0.1,0.1c-0.2,0.3,0.1,0.5,0.1,0.7c0,0.2,0,0.5-0.2,0.7c-0.1,0.1-0.1,0.1-0.2,0.2S29.1,9,29.2,9c0,0,0.1,0,0.1,0.1
				c0.1,0.1,0.2,0.3,0.2,0.5s0,0.4-0.1,0.6c-0.2,0.2-0.6,0.3-0.9,0.2S28,10,27.7,10.3c-0.4,0.3,0.2,0.6,0.2,0.9
				c0,0.3-0.2,0.5-0.4,0.6c-0.2,0.1-0.5,0.3-0.6,0.5c-0.2,0.2-0.1,0.7-0.1,0.9c0.1,0.4,0.4,0.3,0.7,0.5c0.3,0.2,0.4,0.6,0,0.8h-0.1
				v0.1c0,0.1,0,0.1,0,0.2c0.1,0.2,0.2,0.3,0.4,0.5c0,0,0.1,0.1,0.2,0.1s0.2-0.1,0.3-0.2c0-0.1,0-0.2,0-0.4s0.1-0.4,0.2-0.6l0.1-0.1
				c0.2,0,0.4,0.3,0.7,0.2c0.1,0,0.2-0.1,0.3-0.1c0.1-0.1,0.1-0.2,0-0.3c-0.1-0.2-0.5-0.1-0.6-0.3c0-0.1,0-0.1,0-0.2l-0.1-0.1
				c-0.3-0.1-0.7,0-1-0.2c-0.2-0.1-0.2-0.4-0.1-0.6c0.1-0.2,0.4-0.3,0.6-0.3c0.3,0,0.6,0.7,0.8,0.5c0.1-0.1,0.1-0.2,0.1-0.3
				c0.1-0.2,0.3-0.4,0.4-0.5c0.2-0.1,0.5-0.2,0.7-0.2c0.6,0.1,0.8,0.5,1.3,0.8c0.3,0.1,0.6,0.1,0.9,0.1c0.2,0.1,0.9,0.5,0.9,0
				c0-0.2-0.1-0.4-0.1-0.6c0-0.2,0.1-0.5,0.2-0.7C33.9,10.6,34.2,10.1,34.6,9.8z"/>
		</g>
		<g>
			<g>
				<defs>
					<path id="SVGID_10_" d="M34.6,9.8c0.1-0.1,0.3-0.2,0.5-0.2c0.3,0,0.5,0.2,0.7,0.1c-0.1-0.1-0.2-0.2-0.2-0.3s0.2-0.2,0.3-0.1
						C36,9.4,36,9.5,36,9.5h0.1c0.4-0.4,0.7-0.7,1.1-1.1c0.1-0.1,0.1-0.1,0.1-0.2c-0.1,0.1-0.3,0.2-0.6,0.1
						c-0.1-0.1-0.3-0.2-0.4-0.4c-0.1-0.1-0.1-0.2-0.2-0.3c-0.1-0.2-0.3-0.5-0.3-0.8c0-0.1,0.4-1.1,0.3-1.1c-0.2,0-0.3,0.1-0.4,0.3
						c0,0-0.1,0.2-0.1,0.3c-0.1,0.3-0.3,0.6-0.6,0.6s-0.7,0-1,0c-0.6,0-1-0.3-1.6-0.4c-0.3-0.1-0.5-0.3-0.8-0.5
						c-0.3-0.3-0.7-0.5-1-0.8c-0.2-0.1-0.3-0.3-0.5-0.4c-0.1-0.1-0.6-1.1-0.9-0.6c-0.1,0.1,0,0.3,0,0.4S29.1,4.8,29,4.8
						c-0.1,0.1-0.1,0.2,0,0.3c-0.2,0.2,0,0.2,0.1,0.4c0.2,0.2,0.4,0.4,0.5,0.6c0.1,0.3-0.1,0.6,0,0.8c0,0.1,0,0.1,0,0.2
						s-0.1,0.2-0.1,0.1c-0.2,0.3,0.1,0.5,0.1,0.7c0,0.2,0,0.5-0.2,0.7c-0.1,0.1-0.1,0.1-0.2,0.2S29.1,9,29.2,9c0,0,0.1,0,0.1,0.1
						c0.1,0.1,0.2,0.3,0.2,0.5s0,0.4-0.1,0.6c-0.2,0.2-0.6,0.3-0.9,0.2S28,10,27.7,10.3c-0.4,0.3,0.2,0.6,0.2,0.9
						c0,0.3-0.2,0.5-0.4,0.6c-0.2,0.1-0.5,0.3-0.6,0.5c-0.2,0.2-0.1,0.7-0.1,0.9c0.1,0.4,0.4,0.3,0.7,0.5c0.3,0.2,0.4,0.6,0,0.8
						h-0.1v0.1c0,0.1,0,0.1,0,0.2c0.1,0.2,0.2,0.3,0.4,0.5c0,0,0.1,0.1,0.2,0.1s0.2-0.1,0.3-0.2c0-0.1,0-0.2,0-0.4s0.1-0.4,0.2-0.6
						l0.1-0.1c0.2,0,0.4,0.3,0.7,0.2c0.1,0,0.2-0.1,0.3-0.1c0.1-0.1,0.1-0.2,0-0.3c-0.1-0.2-0.5-0.1-0.6-0.3c0-0.1,0-0.1,0-0.2
						l-0.1-0.1c-0.3-0.1-0.7,0-1-0.2c-0.2-0.1-0.2-0.4-0.1-0.6c0.1-0.2,0.4-0.3,0.6-0.3c0.3,0,0.6,0.7,0.8,0.5
						c0.1-0.1,0.1-0.2,0.1-0.3c0.1-0.2,0.3-0.4,0.4-0.5c0.2-0.1,0.5-0.2,0.7-0.2c0.6,0.1,0.8,0.5,1.3,0.8c0.3,0.1,0.6,0.1,0.9,0.1
						c0.2,0.1,0.9,0.5,0.9,0c0-0.2-0.1-0.4-0.1-0.6c0-0.2,0.1-0.5,0.2-0.7C33.9,10.6,34.2,10.1,34.6,9.8z"/>
				</defs>
				<clipPath id="SVGID_11_">
					<use xlink:href="#SVGID_10_"  style="overflow:visible;"/>
				</clipPath>
				<polygon class="st8" points="33.7,5.8 32,8.9 33.5,12.6 41.3,8.2 35.9,4.1 				"/>
			</g>
		</g>
	</g>
</g>
<path class="st9" d="M28.8,27.8c-0.5,0-0.8,0.4-0.8,0.8c0,0.6,0.8,1.6,0.8,1.6s0.8-0.9,0.8-1.6C29.7,28.2,29.3,27.8,28.8,27.8z
	 M28.8,28.9c-0.2,0-0.3-0.1-0.3-0.3s0.1-0.3,0.3-0.3s0.3,0.1,0.3,0.3S29,28.9,28.8,28.9z"/>
<path class="st10" d="M28,17h3.6v3.6H28V17z"/>
<rect x="10.7" y="24.2" class="st11" width="4.2" height="1.5"/>
<rect x="27" y="38.9" class="st12" width="5.5" height="1.3"/>
<rect x="24.8" y="40.9" class="st11" width="4.5" height="0.9"/>
<rect x="38.2" y="27.4" class="st12" width="5.3" height="1.6"/>
<rect x="41.3" y="8.8" class="st12" width="4.6" height="1.7"/>
<rect x="39.1" y="6.6" class="st11" width="4.4" height="1.1"/>
<g id="_x31_6">
	<g>
		<rect x="8.1" y="10.9" class="st12" width="9" height="5"/>
		<circle class="st12" cx="12.6" cy="13.4" r="1.8"/>
	</g>
	<g>
		<rect x="7.9" y="10.7" class="st9" width="9" height="5"/>
		<circle class="st7" cx="12.3" cy="13.1" r="1.8"/>
	</g>
</g>
</svg>
