<?xml version="1.0" encoding="utf-8"?>
<!-- Generator: Adobe Illustrator 21.0.0, SVG Export Plug-In . SVG Version: 6.00 Build 0)  -->
<svg version="1.1" id="Layer_1" xmlns="http://www.w3.org/2000/svg" xmlns:xlink="http://www.w3.org/1999/xlink" x="0px" y="0px"
	 viewBox="0 0 500 500" style="enable-background:new 0 0 500 500;" xml:space="preserve">
<style type="text/css">
	.st0{fill:#F35F73;}
	.st1{fill:#27334D;}
</style>
<circle class="st0" cx="216" cy="250" r="214"/>
<g>
	<path class="st1" d="M449.7,222l-58.7,3.5c-0.1,1.2-0.3,2.3-0.7,3.3c-1.6,3.7-4.8,5.5-9.7,5.5c-4.2,0-7.2-1.5-9.1-4.5
		c-0.9-1.3-1.3-2.9-1.3-4.6V115.8c0-3.2,1.4-5.6,4.1-7.3c1.9-1.1,3.9-1.7,6.2-1.7c4.2,0,7.3,1.5,9.2,4.4l61.5-6.1
		c1.6-0.2,2.9-0.2,3.9-0.2c6.7,0,11.2,2.2,13.4,6.5c1.4,2.7,2.1,6.4,2.1,10.9v104.3c0,1.7-0.3,3.1-1,4.4c-1.8,3.2-4.9,4.8-9.3,4.8
		c-4,0-6.9-1.3-8.9-4c-1-1.4-1.5-3.1-1.5-5.1V222z M449.7,153.8v-24.3c0-3.3-1.5-5-4.4-5c-0.4,0-0.9,0-1.3,0.1l-53.1,4.8v28.8
		L449.7,153.8z M449.7,172l-58.7,4.3v30.9l58.7-3.5V172z"/>
</g>
<g>
	<path class="st1" d="M429.8,332.8v38.3l15.9-0.8h0.6c2.1-0.1,4,0.5,5.6,1.9c1.8,1.6,2.7,3.9,2.7,6.8c0,5.9-2.6,8.9-7.7,9.2
		l-16.7,0.8v22.6c0,2.4-0.8,4.3-2.3,5.8c-2,2-4.7,3-8.1,3c-4.7,0-7.8-1.7-9.3-5.1c-0.5-1.1-0.8-2.3-0.8-3.7v-21.5L392,391l-0.7,0.1
		c-2,0.1-3.7-0.5-5.2-1.7c-2-1.6-3-3.9-3-7c0-5.9,2.6-8.9,7.8-9.2l18.9-1v-33.8l-0.6,0.8c-9,13-20.3,25.4-33.8,37.1
		c-11.1,9.6-18.4,14.4-22,14.4c-2.1,0-3.9-0.9-5.4-2.8c-1.1-1.5-1.7-3-1.7-4.4c0-1.8,0.7-3.5,2.2-5.1c0.4-0.4,2.2-2,5.6-4.8
		c8.8-7.4,18-17.2,27.8-29.5c5.5-6.9,10.6-13.9,15.3-21l-34.8,2.1c-3.4,0.2-5.9-1-7.5-3.7c-1-1.7-1.5-3.7-1.5-6
		c0-5.6,2.4-8.5,7.2-8.8l49-3.1v-24.5c0-2.2,0.6-4,1.9-5.5c2-2.2,4.8-3.3,8.3-3.3c4.6,0,7.7,1.7,9.3,5.1c0.5,1.1,0.8,2.3,0.8,3.7
		v23.2l47.5-2.9l0.6-0.1c1.7-0.1,3.2,0.3,4.8,1.3c2.5,1.7,3.8,4.5,3.8,8.5c0,5.7-2.4,8.7-7.3,8.9l-41.7,2.6
		c7,9.7,15.8,19.6,26.3,29.8c9.6,9.2,19.1,16.8,28.7,22.7c4.4,2.7,6.5,5,6.5,7c0,1.6-1.5,2.8-4.4,3.7c-9,2.5-15,3.8-18,3.8
		c-2.1,0-3.8-0.6-5.2-1.9c-4.9-4.3-10.7-10.6-17.6-19C444.9,355.9,436.9,344.6,429.8,332.8z"/>
</g>
</svg>
