<?xml version="1.0" encoding="utf-8"?>
<!-- Generator: Adobe Illustrator 21.0.0, SVG Export Plug-In . SVG Version: 6.00 Build 0)  -->
<svg version="1.1" id="Layer_1" xmlns="http://www.w3.org/2000/svg" xmlns:xlink="http://www.w3.org/1999/xlink" x="0px" y="0px"
	 viewBox="0 0 1792 1792" style="enable-background:new 0 0 1792 1792;" xml:space="preserve">
<style type="text/css">
	.st0{fill:#6E6E6E;}
</style>
<path class="st0" d="M704,1216c0,26.7-4.2,54-12.5,82s-22.7,53.3-43,76s-44.5,34-72.5,34s-52.2-11.3-72.5-34
	c-20.3-22.7-34.7-48-43-76s-12.5-55.3-12.5-82s4.2-54,12.5-82s22.7-53.3,43-76c20.3-22.7,44.5-34,72.5-34s52.2,11.3,72.5,34
	s34.7,48,43,76S704,1189.3,704,1216z M1344,1216c0,26.7-4.2,54-12.5,82s-22.7,53.3-43,76s-44.5,34-72.5,34s-52.2-11.3-72.5-34
	s-34.7-48-43-76s-12.5-55.3-12.5-82s4.2-54,12.5-82s22.7-53.3,43-76s44.5-34,72.5-34s52.2,11.3,72.5,34s34.7,48,43,76
	S1344,1189.3,1344,1216z M1504,1216c0-80-23-148-69-204s-108.3-84-187-84c-27.3,0-92.3,7-195,21c-47.3,7.3-99.7,11-157,11
	s-109.7-3.7-157-11c-101.3-14-166.3-21-195-21c-78.7,0-141,28-187,84s-69,124-69,204c0,58.7,10.7,109.8,32,153.5s48.3,78,81,103
	s73.3,45,122,60s95.3,24.8,140,29.5s94.3,7,149,7h168c54.7,0,104.3-2.3,149-7s91.3-14.5,140-29.5s89.3-35,122-60s59.7-59.3,81-103
	S1504,1274.7,1504,1216z M1728,1040c0,138-20.3,248.3-61,331c-25.3,51.3-60.5,95.7-105.5,133s-92,66-141,86s-105.7,35.8-170,47.5
	s-121.5,19-171.5,22s-105.7,4.5-167,4.5c-52,0-99.3-1-142-3s-91.8-6.2-147.5-12.5s-106.5-16.3-152.5-30s-91.7-30.8-137-51.5
	s-85.7-47.7-121-81s-64-71.7-86-115c-41.3-82-62-192.3-62-331c0-158,45.3-290,136-396c-18-54.7-27-111.3-27-170
	c0-77.3,17-150,51-218c72,0,135.3,13.2,190,39.5S531.7,363,603,419c98-23.3,201-35,309-35c98.7,0,192,10.7,280,32
	c70-54.7,132.3-95,187-121s117.7-39,189-39c34,68,51,140.7,51,218c0,58-9,114-27,168C1682.7,748.7,1728,881.3,1728,1040z"/>
</svg>
