<?xml version="1.0" encoding="utf-8"?>
<!-- Generator: Adobe Illustrator 21.0.0, SVG Export Plug-In . SVG Version: 6.00 Build 0)  -->
<svg version="1.1" id="Layer_1" xmlns:sketch="http://www.bohemiancoding.com/sketch/ns"
	 xmlns="http://www.w3.org/2000/svg" xmlns:xlink="http://www.w3.org/1999/xlink" x="0px" y="0px" viewBox="0 0 60 60"
	 style="enable-background:new 0 0 60 60;" xml:space="preserve">
<style type="text/css">
	.st0{fill:#6E6E6E;}
</style>
<title></title>
<desc></desc>
<g id="black">
	<g id="slice" transform="translate(-600.000000, 0.000000)">
	</g>
	<g id="linkedin" transform="translate(16.000000, 17.000000)">
		<path class="st0" d="M4.6,29.2V7.8H-2v21.4H4.6z M4.6,0.2c0-1.9-1.3-3.4-3.4-3.4c-2.1,0-3.4,1.5-3.4,3.4c0,1.9,1.3,3.4,3.3,3.4h0
			C3.3,3.6,4.6,2.1,4.6,0.2z M15.4,29.2V17c0-0.7,0-1.3,0.2-1.8c0.5-1.3,1.7-2.7,3.7-2.7c2.6,0,4.3,1.5,4.3,4.4v12.2h6.7V16.7
			c0-6.7-3.6-9.8-8.3-9.8c-3.9,0-5.6,2.2-6.6,3.7l0-2.9H8.7c0.1,2,0,21.5,0,21.5H15.4z"/>
	</g>
</g>
</svg>
