<?xml version="1.0" encoding="utf-8"?>
<!-- Generator: Adobe Illustrator 21.0.0, SVG Export Plug-In . SVG Version: 6.00 Build 0)  -->
<svg version="1.1" id="Layer_1" xmlns="http://www.w3.org/2000/svg" xmlns:xlink="http://www.w3.org/1999/xlink" x="0px" y="0px"
	 viewBox="0 0 250 320" style="enable-background:new 0 0 250 320;" xml:space="preserve">
<style type="text/css">
	.st0{fill:#9CD0FF;}
	.st1{fill:#FFFFFF;stroke:#E6E6E6;stroke-miterlimit:10;}
	.st2{fill:none;}
	.st3{fill:#EAEDEB;}
</style>
<path class="st0" d="M186.8,315.5h-156c-16.6,0-30.3-13.6-30.3-30.3V68.1c0-16.6,13.6-30.3,30.3-30.3h156
	c16.6,0,30.3,13.6,30.3,30.3v217.1C217,301.9,203.4,315.5,186.8,315.5z"/>
<path class="st1" d="M202.8,298.5h-156c-16.6,0-30.3-13.6-30.3-30.3V51.1c0-16.6,13.6-30.3,30.3-30.3h156
	c16.6,0,30.3,13.6,30.3,30.3v217.1C233,284.9,219.4,298.5,202.8,298.5z"/>
<path class="st2" d="M83.3,54.5h82.9v82.9H83.3V54.5z"/>
<path class="st0" d="M125,70.2c-17.7,0-32.1,14.4-32.1,32.1s14.4,32.1,32.1,32.1s32.1-14.4,32.1-32.1S142.7,70.2,125,70.2z
	 M125,79.9c5.3,0,9.6,4.3,9.6,9.6c0,5.3-4.3,9.6-9.6,9.6c-5.3,0-9.6-4.3-9.6-9.6C115.4,84.2,119.7,79.9,125,79.9z M125,125.5
	c-8,0-15.1-4.1-19.3-10.3c0.1-6.4,12.8-9.9,19.3-9.9c6.4,0,19.2,3.5,19.3,9.9C140.1,121.3,133,125.5,125,125.5z"/>
<path class="st2" d="M88.5,62.4h67.2v67.2H88.5V62.4z"/>
<path class="st3" d="M189.4,172.4H55.8c-3.6,0-6.5-2.9-6.5-6.5v0c0-3.6,2.9-6.5,6.5-6.5h133.6c3.6,0,6.5,2.9,6.5,6.5v0
	C195.9,169.4,193,172.4,189.4,172.4z"/>
<path class="st3" d="M154.9,198.5h-66c-3.4,0-6.1-2.7-6.1-6.1v0c0-3.4,2.7-6.1,6.1-6.1h66c3.4,0,6.1,2.7,6.1,6.1v0
	C161,195.8,158.2,198.5,154.9,198.5z"/>
<path class="st3" d="M175.8,225.6H68.4c-3.4,0-6.1-2.7-6.1-6.1v0c0-3.4,2.7-6.1,6.1-6.1h107.4c3.4,0,6.1,2.7,6.1,6.1v0
	C181.9,222.9,179.2,225.6,175.8,225.6z"/>
</svg>
