<?xml version="1.0" encoding="utf-8"?>
<!-- Generator: Adobe Illustrator 21.0.0, SVG Export Plug-In . SVG Version: 6.00 Build 0)  -->
<svg version="1.1" id="Layer_1" xmlns="http://www.w3.org/2000/svg" xmlns:xlink="http://www.w3.org/1999/xlink" x="0px" y="0px"
	 viewBox="0 0 1920 300" style="enable-background:new 0 0 1920 300;" xml:space="preserve">
<style type="text/css">
	.st0{display:none;fill:#CBDAFE;}
	.st1{display:none;fill:#BECEF8;}
	.st2{display:none;fill:#AFC3F8;}
	.st3{display:none;fill:#CFEDFF;}
	.st4{display:none;fill:#84A3F7;}
	.st5{fill:#CFEDFF;}
	.st6{fill:#B0D9F7;}
	.st7{fill:#9BC1F9;}
	.st8{fill:#BECEF8;}
	.st9{fill:#84A3F7;}
</style>
<path class="st0" d="M0,51c248.2,112.5,451.7,137.3,589,140c429.4,8.4,637.8-175.5,1032-117c202.7,30.1,357.8,111,450,168
	c23.3,23.3,46.7,46.7,70,70c-749.7-21-1499.3-42-2249-63"/>
<path class="st1" d="M1069,205C986.5,150.8,809.8,51,564,32C271,9.3,51.2,114.7-35,162c-24.3,12.7-48.7,25.3-73,38l207,28
	C422.3,220.3,745.7,212.7,1069,205z"/>
<path class="st2" d="M1140.5,320.5l-236-88C1018,189,1205.8,133.1,1443,135c221.3,1.8,397.5,53.2,508,95c2,17.7,4,35.3,6,53"/>
<path class="st3" d="M152,264c133.3-93.6,243.6-110.1,301-113c30.6-1.6,59.5-0.6,75.9,0.9c66.6,6,117.6,25.8,254.1,49.1
	c321.5,54.9,558.8,95.4,752,6c35.9-16.6,98-49,186-50c85.1-1,154.6,28.1,199,52"/>
<path class="st4" d="M69,339v-90c200.2,58.9,365.3,76.3,477.5,81.5c409.3,19,661.7-98.6,986-73c212.9,16.8,422,65,422,65
	c22.5,5.2,41.2,9.8,54,13c-6.5-0.7-13-1.3-19.5-2"/>
<path class="st5" d="M-15,319V179c228.5,75.4,414.7,88.5,544,86c206.3-4,235-44.4,448-40c249.7,5.1,308.3,64.2,522,62
	c177.4-1.8,322.8-44.4,421-82c0,31.3,0,62.7,0,94"/>
<path class="st6" d="M2129.1,552.5c-108.3-92.4-268.9-196.7-469.2-204.3c-251.3-9.5-562.1,133.5-815.5,18.3l0,0
	c-0.5-0.2-275-127.2-415.2-151.7c-55.1-9.6-110.3-10.8-110.3-10.8c-16.9-0.4-35.1-0.2-54.4,0.9c-144.3,8-258.8,59.4-329.9,98.8
	l-3.6,50.9c700.3,58.2,1400.6,116.5,2100.9,174.7"/>
<path class="st6" d="M3159,362c-117.4-80.6-288-167.5-488-154c-250.9,16.9-545,191.7-809.1,103.7l0,0
	c-0.5-0.2-286.9-97.7-428.8-107.4c-55.8-3.8-110.8,0.8-110.8,0.8c-16.9,1.4-34.9,3.5-54,6.6c-142.7,23.1-251.2,86.2-317.7,132.8
	l1.7,51c702.5-15.4,1405.1-30.9,2107.6-46.3"/>
<path class="st7" d="M1941,231c-94.8,39.5-239,86.6-420,98c-149.5,9.4-275.4-8.7-366-29v47h778"/>
<path class="st7" d="M1980,443.5l-1809.6,62l-154.9-104l31.2-58C190.1,291.2,418.5,229.4,692,257c242.3,24.5,344.2,101.4,585,130
	c156.6,18.6,394.2,19.4,701-87.5"/>
<path class="st8" d="M1920,276"/>
<path class="st6" d="M1398,261"/>
<path class="st9" d="M-33,378V221c262.8,120.4,476.2,145.4,616,148c365.3,6.8,537.7-133.6,894-104c226.9,18.9,404.2,96.4,510,152"/>
</svg>
